<svg id="Camada_1" data-name="Camada 1" xmlns="http://www.w3.org/2000/svg" xmlns:xlink="http://www.w3.org/1999/xlink" viewBox="0 0 239 29">
  <defs>
    <style>
      .cls-1, .cls-8 {
        fill: none;
      }

      .cls-2 {
        clip-path: url(#clip-path);
      }

      .cls-3 {
        clip-path: url(#clip-path-2);
      }

      .cls-4 {
        fill: #e1db00;
      }

      .cls-5 {
        clip-path: url(#clip-path-3);
      }

      .cls-6 {
        fill: #ec7d00;
      }

      .cls-7 {
        fill: #ffea00;
      }

      .cls-8 {
        stroke: #3f3e41;
        stroke-linecap: round;
        stroke-linejoin: round;
      }

      .cls-9 {
        fill: #0072b8;
      }
    </style>
    <clipPath id="clip-path">
      <rect class="cls-1" x="-8.05" y="-478.8" width="256" height="512"/>
    </clipPath>
    <clipPath id="clip-path-2">
      <rect class="cls-1" x="-8.05" y="53.2" width="256" height="512"/>
    </clipPath>
    <clipPath id="clip-path-3">
      <rect class="cls-1" x="-284.05" y="-477.01" width="256" height="512"/>
    </clipPath>
  </defs>
  <g class="cls-2">
    <g class="cls-3">
      <path class="cls-4" d="M208.62,128.6c1.47.05,2.22.08,3.18.14,1.23.07,2.24.16,2.95.22Q197.91,73.34,181.05,17.7l-8.52,2.58,32.81,108.2,3.28.12"/>
      <rect class="cls-4" x="178.94" y="26.82" width="135.18" height="1.11" transform="translate(-1.35 18.25) rotate(-4.23)"/>
      <rect class="cls-4" x="211.49" y="27.46" width="2.11" height="3.38" transform="translate(-1.63 16.68) rotate(-4.48)"/>
      <path class="cls-4" d="M275.83,88.68c-22.75,26-41.81,46.46-41.81,46.46s17.83-21.58,40.58-47.54,41.8-46.46,41.8-46.46-17.82,21.58-40.57,47.54m42.28-64.11L224.45,131.49a17.32,17.32,0,0,1,9.12,8.06l92.77-105.8c-.33-.92-.68-1.88-1-2.88Z"/>
      <path class="cls-4" d="M247.12,23.19c-34.21,2.59-62,3.88-62,3.88s27.67-2.91,61.88-5.51,62-3.89,62-3.89-27.67,2.92-61.88,5.52m72.15-11.63L177.35,21.94l.65,8.88L319.93,20.43l-.65-8.85v0Z"/>
    </g>
    <g class="cls-5">
      <path class="cls-6" d="M35.07-24.59l-.54,1.25-.93-.4A57.94,57.94,0,0,1,24.53-9.9l.39.35-.91,1-.39-.35A58.39,58.39,0,0,1,10.46,1.73l.09.16-1.17.7-.11-.18a57.62,57.62,0,0,1-16,6l.09.41-1.33.29L-8,8.7a58.46,58.46,0,0,1-10.74,1c-1.46,0-2.9-.06-4.34-.16l0,.37-1.36-.1,0-.39a57.29,57.29,0,0,1-17-4.37l-.16.38L-42.9,4.9l.17-.4A58,58,0,0,1-56.6-4.44l-.35.39-1-.89.35-.41A58.25,58.25,0,0,1-68.08-18l-.9.54-.7-1.17.9-.55a57.36,57.36,0,0,1-6.36-16.21l-.73.16-.29-1.34.74-.16a57.34,57.34,0,0,1-1.12-11.35q0-1.92.12-3.81l-.32,0,.1-1.36.33,0a57.22,57.22,0,0,1,3.89-16.25l-.21-.08.52-1.26.21.08a57.79,57.79,0,0,1,8.64-14.13l-.36-.31.9-1,.35.3A58.16,58.16,0,0,1-50.09-96.57l-.15-.26,1.16-.71.15.24a57.16,57.16,0,0,1,15.24-6.56l-.16-.66,1.32-.32.16.64a58,58,0,0,1,13.58-1.61c1.22,0,2.42,0,3.61.11l0-.26,1.36.12,0,.24a57.2,57.2,0,0,1,16.35,3.87l.33-.79,1.26.52-.33.79A57.9,57.9,0,0,1,18.3-92.3l.38-.44,1,.88-.38.45a58.23,58.23,0,0,1,11.12,13.2l.19-.11.71,1.17-.2.11A57.31,57.31,0,0,1,37.4-61.45l.85-.21.32,1.33-.87.21A57.78,57.78,0,0,1,39-48.06c0,1.61-.07,3.19-.2,4.76l1.18.09-.11,1.36-1.19-.09a57.25,57.25,0,0,1-4.49,17Zm-53.86-83.57a60.17,60.17,0,0,0-60.1,60.1,60.18,60.18,0,0,0,60.1,60.11A60.18,60.18,0,0,0,41.32-48.06a60.17,60.17,0,0,0-60.11-60.1"/>
      <path class="cls-6" d="M38.56-23.83A61.83,61.83,0,0,1,25.22-4,62,62,0,0,1,5.44,9.29a61.75,61.75,0,0,1-24.23,4.89A61.73,61.73,0,0,1-43,9.29,62,62,0,0,1-62.79-4,61.83,61.83,0,0,1-76.13-23.83,61.75,61.75,0,0,1-81-48.06a61.73,61.73,0,0,1,4.89-24.22A62,62,0,0,1-62.79-92.07,62,62,0,0,1-43-105.4a61.73,61.73,0,0,1,24.22-4.89A61.75,61.75,0,0,1,5.44-105.4,62,62,0,0,1,25.22-92.07,62,62,0,0,1,38.56-72.28a61.73,61.73,0,0,1,4.89,24.22,61.75,61.75,0,0,1-4.89,24.23M40.72-73.2A64.34,64.34,0,0,0,26.88-93.73,64.46,64.46,0,0,0,6.36-107.57a64.39,64.39,0,0,0-25.15-5.07,64.38,64.38,0,0,0-25.14,5.07A64.46,64.46,0,0,0-64.45-93.73,64.34,64.34,0,0,0-78.29-73.2a64.21,64.21,0,0,0-5.08,25.14,64.14,64.14,0,0,0,5.08,25.14A64.34,64.34,0,0,0-64.45-2.39,64.3,64.3,0,0,0-43.93,11.45a64.21,64.21,0,0,0,25.14,5.08A64.22,64.22,0,0,0,6.36,11.45,64.3,64.3,0,0,0,26.88-2.39,64.34,64.34,0,0,0,40.72-22.92,64.14,64.14,0,0,0,45.8-48.06,64.21,64.21,0,0,0,40.72-73.2"/>
    </g>
  </g>
  <g class="cls-2">
    <path class="cls-7" d="M30.35,5.17S14.09,2.6,16.66,18.74C32.94,21.29,30.35,5.17,30.35,5.17"/>
    <path class="cls-7" d="M2,2.7S18.28.13,15.72,16.27C-.57,18.82,2,2.7,2,2.7"/>
    <path class="cls-8" d="M15.61,17.51h-.76c-.23,7.48-1.27,9.79-1.27,9.79h3.3S15.84,25,15.61,17.51ZM6,8.81l9,9M1.1,4S17.55,1.33,15,17.81C-1.52,20.4,1.1,4,1.1,4Zm24,4.3-9.56,9.56M29.36,4S12.91,1.33,15.51,17.81C32,20.4,29.36,4,29.36,4Z"/>
    <path class="cls-9" d="M55.66,13.17a6.93,6.93,0,0,1-13.84,0,6.93,6.93,0,0,1,13.84,0"/>
    <path class="cls-8" d="M56.78,2.1,54.45,6.15m7.49,1.11-4,2.33m5.93,4.71H59.16m2.78,7L57.9,19m-1.12,7.48-2.33-4m-4.71,5.93V23.71m-7,2.78,2.34-4m-7.49-1.11,4-2.33M35.66,14.3h4.67m-2.78-7,4,2.33M42.7,2.1,45,6.15M49.74.22V4.89M43.11,14.3a6.64,6.64,0,1,1,6.63,6.63A6.64,6.64,0,0,1,43.11,14.3Z"/>
    <path class="cls-7" d="M160.15,4.27c-2.38,0-4.6-1.71-8.87-.32,0,0-3.92,1.42-5.6,7.12,0,0,5.86,1.5,8.77-.09,3.88-1.82,5.69-6.71,5.7-6.71"/>
    <path class="cls-7" d="M141.05,17.28c1.21,2,.83,4.84,4.17,7.84,0,0,3.18,2.68,9,1.29,0,0-1.63-5.82-4.46-7.55-3.52-2.45-8.66-1.57-8.67-1.58"/>
    <path class="cls-7" d="M162.4,27.27c1.18-2.07,3.79-3.14,4.71-7.53,0,0,.73-4.1-3.36-8.41,0,0-4.23,4.32-4.31,7.64-.36,4.28,3,8.28,3,8.3"/>
    <path class="cls-8" d="M163.41,21.46s3.66-8.14-.37-14.72m.06,19.31c1.17-2.07,3.78-3.14,4.71-7.53,0,0,.73-4.1-3.37-8.41,0,0-4.22,4.32-4.31,7.64C159.78,22,163.1,26,163.1,26.05Zm-17.54-7.43s5.23,7.25,12.94,7m-16.75-9.6c1.2,2.05.82,4.84,4.16,7.85,0,0,3.19,2.67,9,1.28,0,0-1.63-5.82-4.46-7.55C146.89,15.19,141.76,16.07,141.75,16.06Zm15-11s-8.88.9-12.56,7.69m16.69-9.71c-2.38,0-4.61-1.71-8.88-.32,0,0-3.91,1.42-5.59,7.12,0,0,5.85,1.5,8.77-.08C159,7.94,160.84,3.05,160.85,3.05Z"/>
    <path class="cls-7" d="M81.11,20.23a5,5,0,0,1-10,0,5,5,0,0,1,10,0"/>
    <path class="cls-7" d="M100.14,20.23a5,5,0,0,1-10,0,5,5,0,0,1,10,0"/>
    <path class="cls-8" d="M81.64,10h-2.4a1.52,1.52,0,1,1,0-3h2.4a1.52,1.52,0,0,1,0,3Zm6-4.23h5.33A2.24,2.24,0,0,1,95.16,8M89,3.63h5.33a2.25,2.25,0,1,1,0,4.49H93.06M80.44,12.67V10M77.35,21.06l15.71-8.39V8.12M77.35,21.06l3.09-8.39H93.06l3.48,8.39m4.77,0a4.77,4.77,0,1,1-4.77-4.77A4.78,4.78,0,0,1,101.31,21.06Zm-19.19,0a4.77,4.77,0,1,1-4.77-4.77A4.77,4.77,0,0,1,82.12,21.06Z"/>
    <path class="cls-9" d="M183.37,22.16a5,5,0,0,1-10,0,5,5,0,0,1,10,0"/>
    <path class="cls-9" d="M202.39,22.16a5,5,0,0,1-9.95,0,5,5,0,0,1,9.95,0"/>
    <path class="cls-8" d="M183.89,11.9h-2.4a1.52,1.52,0,0,1,0-3h2.4a1.52,1.52,0,1,1,0,3Zm6-4.23h5.33a2.24,2.24,0,0,1,2.24,2.24M191.3,5.56h5.33a2.25,2.25,0,0,1,0,4.49h-1.31M182.69,14.6V11.92M179.61,23l15.71-8.39V10.05M179.61,23l3.08-8.39h12.63L198.79,23m4.77,0a4.77,4.77,0,1,1-4.77-4.77A4.77,4.77,0,0,1,203.56,23Zm-19.18,0a4.77,4.77,0,1,1-4.77-4.77A4.78,4.78,0,0,1,184.38,23Z"/>
    <path class="cls-9" d="M113.82,22.9,112,17.18a.88.88,0,0,1,1.24-1.05l4.66,2.34a.89.89,0,0,1,.28,1.37l-2.88,3.37a.88.88,0,0,1-1.52-.31"/>
    <path class="cls-9" d="M130.41,13.15h-5.82c-1.66,0-3,.6-3,2.26a1.7,1.7,0,0,0,.93,1.76c.1,0,.2.07.3.11l3,1.29,2.35,4.29c.19.58,1.46,1.45,1.88,1a12.14,12.14,0,0,0,3.4-7.52s-.32-3.22-3-3.22"/>
    <path class="cls-9" d="M132.54,10.81A12.26,12.26,0,0,0,128,5.23h-.12a5.08,5.08,0,0,0-5.08,5.09,1.32,1.32,0,0,0,1.33,1.33h7.2a1.32,1.32,0,0,0,1.24-.84"/>
    <path class="cls-9" d="M118.52,3.53a2.1,2.1,0,0,0-.28,1.06v.74a2.13,2.13,0,0,0,1.3,2,3.57,3.57,0,0,1,3-2V4.59A2.09,2.09,0,0,0,122,3.25q-.37,0-.78,0a12.28,12.28,0,0,0-2.73.31"/>
    <path class="cls-9" d="M109.07,15.41c0,.23,0,.45,0,.68l4.3-2a3.56,3.56,0,0,0,2-2.37l1.26-5.12a3.55,3.55,0,0,0-.24-2.38,12.18,12.18,0,0,0-7.3,11.17"/>
    <path class="cls-8" d="M108.2,14.71c0,.23,0,.46,0,.68l4.3-2a3.54,3.54,0,0,0,2-2.37l1.26-5.11a3.57,3.57,0,0,0-.24-2.39A12.2,12.2,0,0,0,108.2,14.71Zm9.45-11.88a2.1,2.1,0,0,0-.28,1.06v.74a2.15,2.15,0,0,0,1.3,2,3.57,3.57,0,0,1,3-2V3.89a2.11,2.11,0,0,0-.48-1.34c-.25,0-.51,0-.77,0A12.3,12.3,0,0,0,117.65,2.83Zm14,7.28a12.23,12.23,0,0,0-4.57-5.57H127a5.08,5.08,0,0,0-5.08,5.08A1.33,1.33,0,0,0,123.23,11h7.2A1.32,1.32,0,0,0,131.67,10.11Zm-2.13,2.34h-5.82c-1.66,0-3,.6-3,2.26a1.7,1.7,0,0,0,.93,1.76c.1.05.2.07.3.11l3,1.3,2.35,4.28c.19.58,1.46,1.45,1.89,1a12.13,12.13,0,0,0,3.39-7.52S132.21,12.45,129.54,12.45ZM113,22.2l-1.78-5.71a.88.88,0,0,1,1.24-1.06l4.66,2.34a.9.9,0,0,1,.28,1.37l-2.88,3.38A.89.89,0,0,1,113,22.2Zm-4.75-7.49A12.19,12.19,0,1,1,120.39,26.9,12.19,12.19,0,0,1,108.2,14.71Z"/>
    <path class="cls-7" d="M238.81,5.17S222.55,2.6,225.12,18.74c16.28,2.55,13.69-13.57,13.69-13.57"/>
    <path class="cls-7" d="M210.49,2.7S226.75.13,224.18,16.27C207.89,18.82,210.49,2.7,210.49,2.7"/>
    <path class="cls-8" d="M224.07,17.51h-.75C223.08,25,222,27.3,222,27.3h3.31S224.3,25,224.07,17.51Zm-9.65-8.7,9,9M209.56,4S226,1.33,223.42,17.81C206.94,20.4,209.56,4,209.56,4Zm24,4.3L224,17.81M237.83,4S221.38,1.33,224,17.81C240.45,20.4,237.83,4,237.83,4Z"/>
  </g>
</svg>
