<svg xmlns="http://www.w3.org/2000/svg" xmlns:xlink="http://www.w3.org/1999/xlink" viewBox="0 0 22.55 16.97">
  <defs>
    <style>
      .cls-1, .cls-4 {
        fill: none;
      }

      .cls-2 {
        clip-path: url(#clip-path);
      }

      .cls-3 {
        fill: #ffe700;
      }

      .cls-4 {
        stroke: #221f20;
        stroke-linecap: round;
        stroke-linejoin: round;
        stroke-width: 0.74px;
      }
    </style>
    <clipPath id="clip-path" transform="translate(-12.28 -14.46)">
      <rect class="cls-1" width="43.2" height="43.5"/>
    </clipPath>
  </defs>
  <g id="Camada_2" data-name="Camada 2">
    <g id="Camada_1-2" data-name="Camada 1">
      <g class="cls-2">
        <path class="cls-3" d="M19.61,27.05c.07,4.52-7.4,4.52-7.33,0s7.4-4.53,7.33,0" transform="translate(-12.28 -14.46)"/>
        <path class="cls-3" d="M33.6,27.05c.07,4.52-7.39,4.52-7.32,0s7.39-4.53,7.32,0" transform="translate(-12.28 -14.46)"/>
        <path class="cls-4" d="M20,19.5H18.23a1.12,1.12,0,0,1,0-2.23H20A1.12,1.12,0,0,1,20,19.5Zm4.38-3.12c1.42.22,5.64-.87,5.57,1.65m-4.5-3.2h3.92c2.84.35,1.63,4-1,3.3m-9.29,3.35v-2m-2.27,8.14L28.4,21.48V18.13M16.84,27.65l2.27-6.17H28.4L31,27.65m3.51,0c.07,4.55-7.08,4.56-7,0S34.53,23.1,34.46,27.65Zm-14.11,0c.06,4.56-7.09,4.56-7,0S20.41,23.1,20.35,27.65Z" transform="translate(-12.28 -14.46)"/>
      </g>
    </g>
  </g>
</svg>
