<svg xmlns="http://www.w3.org/2000/svg" xmlns:xlink="http://www.w3.org/1999/xlink" viewBox="0 0 57.59 16.97">
  <defs>
    <style>
      .cls-1, .cls-5 {
        fill: none;
      }

      .cls-2 {
        clip-path: url(#clip-path);
      }

      .cls-3 {
        fill: url(#Gradiente_sem_nome_5);
      }

      .cls-4 {
        fill: #ffe700;
      }

      .cls-5 {
        stroke: #221f20;
        stroke-linecap: round;
        stroke-linejoin: round;
        stroke-width: 0.74px;
      }
    </style>
    <clipPath id="clip-path">
      <rect class="cls-1" y="6.85" width="33.11" height="3.17"/>
    </clipPath>
    <linearGradient id="Gradiente_sem_nome_5" data-name="Gradiente sem nome 5" x1="-287.15" y1="-70.64" x2="-286.15" y2="-70.64" gradientTransform="matrix(33.11, 0, 0, -33.11, 9506.51, -2330.3)" gradientUnits="userSpaceOnUse">
      <stop offset="0" stop-color="#ea8024"/>
      <stop offset="1" stop-color="#ffe900"/>
    </linearGradient>
  </defs>
  <g id="Camada_2" data-name="Camada 2">
    <g id="Camada_1-2" data-name="Camada 1">
      <g class="cls-2">
        <rect class="cls-3" y="6.85" width="33.11" height="3.17"/>
      </g>
      <g>
        <path class="cls-4" d="M42.36,12.59c.07,4.52-7.39,4.52-7.32,0s7.39-4.53,7.32,0"/>
        <path class="cls-4" d="M56.36,12.59c.07,4.52-7.4,4.52-7.33,0s7.4-4.53,7.33,0"/>
        <path class="cls-5" d="M42.75,5H41a1.12,1.12,0,0,1,0-2.23h1.77A1.12,1.12,0,0,1,42.75,5Zm4.37-3.12c1.43.22,5.65-.87,5.57,1.65M48.19.37h3.93c2.84.35,1.63,4-1,3.3M41.86,7v-2m-2.27,8.14L51.15,7V3.67M39.59,13.19,41.86,7h9.29l2.56,6.17m3.51,0c.06,4.55-7.09,4.56-7,0S57.28,8.64,57.22,13.19Zm-14.12,0c.07,4.56-7.08,4.55-7,0S43.17,8.64,43.1,13.19Z"/>
      </g>
    </g>
  </g>
</svg>
