<?xml version="1.0" encoding="utf-8"?>
<!-- Generator: Adobe Illustrator 25.4.1, SVG Export Plug-In . SVG Version: 6.00 Build 0)  -->
<svg version="1.1" id="Camada_1" xmlns="http://www.w3.org/2000/svg" xmlns:xlink="http://www.w3.org/1999/xlink" x="0px" y="0px"
	 viewBox="0 0 256 40.1" style="enable-background:new 0 0 256 40.1;" xml:space="preserve">
<style type="text/css">
	.st0{fill:none;}
	.st1{clip-path:url(#SVGID_00000053527868755509968310000014554706678728052663_);}
	.st2{clip-path:url(#SVGID_00000060000185462056223710000016920550824100126597_);}
	.st3{fill:#D8D600;}
	.st4{fill:#EA8024;}
	.st5{clip-path:url(#SVGID_00000114054825964368639540000007918834497334601621_);}
	.st6{fill:#FFE700;}
	.st7{fill:none;stroke:#383B3F;stroke-linecap:round;stroke-linejoin:round;}
	.st8{fill:#0078B6;}
</style>
<rect y="-471.9" class="st0" width="256" height="512"/>
<g>
	<g>
		<defs>
			<rect id="SVGID_1_" y="-471.9" width="256" height="512"/>
		</defs>
		<clipPath id="SVGID_00000112620841493094132910000017664147891886977930_">
			<use xlink:href="#SVGID_1_"  style="overflow:visible;"/>
		</clipPath>
		<g style="clip-path:url(#SVGID_00000112620841493094132910000017664147891886977930_);">
			<g>
				<g>
					<defs>
						<rect id="SVGID_00000091720714696590052230000011872401605474062979_" y="60.1" width="256" height="512"/>
					</defs>
					<clipPath id="SVGID_00000121263648858022262800000008007818668278767006_">
						<use xlink:href="#SVGID_00000091720714696590052230000011872401605474062979_"  style="overflow:visible;"/>
					</clipPath>
					<g style="clip-path:url(#SVGID_00000121263648858022262800000008007818668278767006_);">
						<path class="st3" d="M202.7-12.1c-11.1-5.5-19.6-1.6-40.4-0.7c-16.8,0.8-22.6-1.2-23.4,1c-1,3.2,9.3,11.8,21.3,13.5l0.6-0.2
							l0.6-0.2c0.2-0.1,0.4-0.1,0.6-0.2c0.4-0.1,0.8-0.3,1.1-0.5c1.6-0.8,3.2-1.8,4.7-2.8c0.8-0.5,1.6-1.1,2.5-1.6l0.3-0.2l0.3-0.2
							l0.7-0.4l0.7-0.4l0.2-0.1l0.2-0.1l0.4-0.2c0.5-0.2,0.9-0.5,1.4-0.7l1.4-0.6l0.3-0.1l0.4-0.1l0.7-0.2c0.5-0.2,0.9-0.3,1.4-0.5
							l1.4-0.4l1.4-0.3l0.7-0.2l0.7-0.1l1.3-0.2c3.1-0.5,6.3-0.6,9.4-0.3c0.7,0,1.3,0.1,1.9,0.2l0.4,0.1l0.4,0.1l0.8,0.1
							c1.1,0.2,1.9,0.4,2.6,0.6l0.3,0.1l0.2,0.1l0.4,0.1l0.7,0.2l0.6,0.2l-0.6-0.1l-0.7-0.2l-0.4-0.1H200l-0.3-0.1
							c-0.7-0.1-1.6-0.3-2.7-0.4l-0.8-0.1h-0.4h-0.4c-0.6,0-1.2-0.1-1.9-0.1c-3.1-0.1-6.2,0.1-9.2,0.7L183-7.4l-0.7,0.2L181.5-7
							l-1.3,0.4l-1.3,0.4c-0.5,0.1-0.9,0.3-1.4,0.5l-0.7,0.2l-0.3,0.1l-0.3,0.1l-1.4,0.6L173.5-4l-0.3,0.2H173l-0.2,0.1l-0.6,0.4
							L171.5-3l-0.3,0.2l-0.3,0.2c-0.8,0.5-1.6,1-2.5,1.5c-1.6,1-3.2,1.9-4.9,2.7c-0.3,0.1-0.6,0.3-0.9,0.4c1,0.1,2,0.1,3.1,0
							c7.1-0.4,7.6-3.5,17.4-5.7C198.5-7.2,210-2.5,210.8-5c0.5-1.6-3.8-4.9-8-7"/>
						<path class="st3" d="M216.7,135.5c1.5,0,2.2,0.1,3.2,0.1c1.2,0.1,2.2,0.2,3,0.2c-11.3-37.1-22.5-74.2-33.8-111.3l-8.5,2.6
							c10.9,36.1,21.9,72.1,32.8,108.2L216.7,135.5"/>
						
							<rect x="187" y="33.7" transform="matrix(0.9973 -7.375862e-02 7.375862e-02 0.9973 -1.8326 18.8724)" class="st3" width="135.2" height="1.1"/>
						
							<rect x="219.5" y="34.4" transform="matrix(0.9969 -7.811458e-02 7.811458e-02 0.9969 -2.1462 17.338)" class="st3" width="2.1" height="3.4"/>
						<path class="st3" d="M161.7,66l-1.1-0.1c0.3-3.2,1.1-6.4,2.4-9.4c2.1-5.5,5.9-10.2,10.8-13.5c3.9-2.5,8.3-4,12.8-4.3l0.1,1.1
							c-4.4,0.3-8.6,1.8-12.3,4.1C163.9,50.6,162,62.5,161.7,66"/>
						<path class="st3" d="M283.9,95.6c-22.8,26-41.8,46.5-41.8,46.5s17.8-21.6,40.6-47.5s41.8-46.5,41.8-46.5
							S306.6,69.6,283.9,95.6 M326.2,31.5l-93.7,106.9c3.9,1.5,7.2,4.4,9.1,8.1l92.8-105.8c-0.3-0.9-0.7-1.9-1-2.9L326.2,31.5z"/>
						<path class="st3" d="M255.2,30.1c-34.2,2.6-62,3.9-62,3.9s27.7-2.9,61.9-5.5s62-3.9,62-3.9S289.4,27.5,255.2,30.1 M327.3,18.5
							L185.4,28.9l0.6,8.9l142-10.4L327.3,18.5L327.3,18.5L327.3,18.5z"/>
					</g>
				</g>
			</g>
		</g>
	</g>
</g>
<rect y="0" class="st4" width="256" height="40.1"/>
<g>
	<defs>
		<rect id="SVGID_00000031910100191733340030000006040457462371680688_" y="0" width="256" height="40.1"/>
	</defs>
	<clipPath id="SVGID_00000016061425385891694410000002154081439314029221_">
		<use xlink:href="#SVGID_00000031910100191733340030000006040457462371680688_"  style="overflow:visible;"/>
	</clipPath>
	<g style="clip-path:url(#SVGID_00000016061425385891694410000002154081439314029221_);">
		<path class="st6" d="M38.4,12.1c0,0-16.3-2.6-13.7,13.6C41,28.2,38.4,12.1,38.4,12.1"/>
		<path class="st6" d="M10.1,9.6c0,0,16.3-2.6,13.7,13.6C7.5,25.7,10.1,9.6,10.1,9.6"/>
		<path class="st7" d="M23.7,24.4h-0.8c-0.2,7.5-1.3,9.8-1.3,9.8h3.3C24.9,34.2,23.9,31.9,23.7,24.4z M14,15.7l9,9 M9.1,10.9
			c0,0,16.5-2.6,13.9,13.9C6.5,27.3,9.1,10.9,9.1,10.9z M33.1,15.2l-9.5,9.6 M37.4,10.9c0,0-16.4-2.6-13.9,13.9
			C40,27.3,37.4,10.9,37.4,10.9z"/>
		<path class="st8" d="M63.7,20.1c-0.2,3.8-3.5,6.8-7.3,6.5c-3.5-0.2-6.4-3-6.5-6.5c0.2-3.8,3.5-6.8,7.3-6.5
			C60.7,13.7,63.5,16.6,63.7,20.1"/>
		<path class="st7" d="M64.8,9l-2.3,4 M70,14.2l-4,2.3 M71.9,21.2h-4.7 M70,28.2l-4-2.3 M64.9,33.4l-2.3-4 M57.8,35.3v-4.7
			 M50.8,33.4l2.3-4 M45.6,28.3l4-2.3 M43.7,21.2h4.7 M45.6,14.2l4,2.3 M50.8,9l2.3,4 M57.8,7.1v4.7 M51.2,21.2c0-3.7,3-6.6,6.6-6.6
			s6.6,3,6.6,6.6c0,3.7-3,6.6-6.6,6.6C54.2,27.8,51.2,24.9,51.2,21.2L51.2,21.2z"/>
		<path class="st6" d="M168.2,11.2c-2.4,0-4.6-1.7-8.9-0.3c0,0-3.9,1.4-5.6,7.1c0,0,5.9,1.5,8.8-0.1
			C166.4,16.1,168.2,11.2,168.2,11.2"/>
		<path class="st6" d="M149.1,24.2c1.2,2,0.8,4.9,4.2,7.8c0,0,3.2,2.7,9,1.3c0,0-1.6-5.8-4.5-7.5C154.3,23.3,149.1,24.2,149.1,24.2"
			/>
		<path class="st6" d="M170.4,34.2c1.2-2.1,3.8-3.1,4.7-7.5c0,0,0.7-4.1-3.4-8.4c0,0-4.2,4.3-4.3,7.6
			C167.1,30.2,170.5,34.2,170.4,34.2"/>
		<path class="st7" d="M171.5,28.4c0,0,3.7-8.1-0.4-14.7 M171.1,33c1.2-2.1,3.8-3.1,4.7-7.5c0,0,0.7-4.1-3.4-8.4
			c0,0-4.2,4.3-4.3,7.6C167.8,29,171.1,33,171.1,33z M153.6,25.6c0,0,5.2,7.2,12.9,7 M149.8,23c1.2,2.1,0.8,4.9,4.2,7.9
			c0,0,3.2,2.7,9,1.3c0,0-1.6-5.8-4.5-7.6C154.9,22.1,149.8,23,149.8,23z M164.8,12c0,0-8.9,0.9-12.6,7.7 M168.9,10
			c-2.4,0-4.6-1.7-8.9-0.3c0,0-3.9,1.4-5.6,7.1c0,0,5.9,1.5,8.8-0.1C167.1,14.9,168.9,10,168.9,10z"/>
		<path class="st6" d="M89.2,27.2c0.1,2.8-2,5.1-4.7,5.2c-2.8,0.1-5.1-2-5.2-4.7s2-5.1,4.7-5.2c0.1,0,0.2,0,0.2,0
			C86.8,22.3,89.1,24.4,89.2,27.2C89.2,27.1,89.2,27.1,89.2,27.2"/>
		<path class="st6" d="M108.2,27.2c0.1,2.8-2,5.1-4.7,5.2c-2.8,0.1-5.1-2-5.2-4.7s2-5.1,4.7-5.2c0.1,0,0.2,0,0.2,0
			C105.9,22.3,108.1,24.4,108.2,27.2C108.2,27.1,108.2,27.1,108.2,27.2"/>
		<path class="st7" d="M89.7,16.9h-2.4c-0.8-0.1-1.4-0.9-1.3-1.7c0.1-0.6,0.6-1.1,1.3-1.3h2.4c0.8-0.1,1.6,0.4,1.7,1.3
			c0.1,0.8-0.4,1.6-1.3,1.7C90,16.9,89.8,16.9,89.7,16.9z M95.6,12.7h5.4c1.2,0,2.2,1,2.2,2.2l0,0 M97.1,10.6h5.3
			c1.2,0.1,2.2,1.2,2.1,2.4c-0.1,1.1-1,2-2.1,2.1h-1.3 M88.5,19.6v-2.7 M85.4,28l15.7-8.4V15 M85.4,28l3.1-8.4h12.6l3.5,8.4
			 M109.3,28c0,2.6-2.1,4.8-4.8,4.8c-2.6,0-4.8-2.1-4.8-4.8s2.1-4.8,4.8-4.8l0,0C107.2,23.2,109.3,25.4,109.3,28
			C109.4,28,109.4,28,109.3,28z M90.2,28c0,2.6-2.1,4.8-4.8,4.8c-2.6,0-4.8-2.1-4.8-4.8s2.1-4.8,4.8-4.8l0,0
			C88,23.2,90.2,25.4,90.2,28z"/>
		<path class="st8" d="M191.4,29.1c0.1,2.8-2,5.1-4.7,5.2c-2.8,0.1-5.1-2-5.2-4.7c-0.1-2.8,2-5.1,4.7-5.2c0.1,0,0.2,0,0.2,0
			C189.1,24.3,191.3,26.4,191.4,29.1L191.4,29.1"/>
		<path class="st8" d="M210.4,29.1c0.1,2.8-2,5.1-4.7,5.2c-2.8,0.1-5.1-2-5.2-4.7c-0.1-2.8,2-5.1,4.7-5.2c0.1,0,0.2,0,0.2,0
			C208.1,24.3,210.4,26.4,210.4,29.1L210.4,29.1"/>
		<path class="st7" d="M191.9,18.8h-2.4c-0.8,0.1-1.6-0.4-1.7-1.3c-0.1-0.8,0.4-1.6,1.3-1.7c0.2,0,0.3,0,0.5,0h2.4
			c0.8,0.1,1.4,0.9,1.3,1.7C193.1,18.2,192.6,18.7,191.9,18.8z M197.9,14.6h5.3c1.2,0,2.2,1,2.2,2.2l0,0 M199.3,12.5h5.3
			c1.2-0.1,2.3,0.9,2.4,2.1c0.1,1.2-0.9,2.3-2.1,2.4c-0.1,0-0.2,0-0.3,0h-1.3 M190.7,21.5v-2.7 M187.7,29.9l15.7-8.4V17 M187.6,29.9
			l3.1-8.4h12.6l3.5,8.4 M211.6,29.9c0,2.6-2.1,4.8-4.8,4.8s-4.8-2.1-4.8-4.8s2.1-4.8,4.8-4.8C209.5,25.1,211.6,27.3,211.6,29.9
			L211.6,29.9z M192.4,29.9c0,2.6-2.1,4.8-4.8,4.8s-4.8-2.1-4.8-4.8s2.1-4.8,4.8-4.8C190.3,25.1,192.4,27.3,192.4,29.9L192.4,29.9
			L192.4,29.9z"/>
		<path class="st8" d="M121.9,29.8l-1.8-5.7c-0.1-0.5,0.1-1,0.6-1.1c0.2-0.1,0.5,0,0.7,0.1l4.7,2.3c0.4,0.2,0.6,0.8,0.4,1.2
			c0,0.1-0.1,0.1-0.1,0.2l-2.9,3.4c-0.3,0.4-0.9,0.4-1.3,0.1C122,30.1,121.9,30,121.9,29.8"/>
		<path class="st8" d="M138.5,20.1h-5.8c-1.7,0-3,0.6-3,2.3c-0.1,0.7,0.3,1.4,0.9,1.8c0.1,0,0.2,0.1,0.3,0.1l3,1.3l2.4,4.3
			c0.2,0.6,1.4,1.5,1.9,1c2-2,3.2-4.7,3.4-7.5C141.5,23.3,141.2,20,138.5,20.1"/>
		<path class="st8" d="M140.6,17.7c-0.9-2.3-2.5-4.2-4.6-5.6h-0.1c-2.8,0-5.1,2.3-5.1,5.1c0,0.7,0.6,1.3,1.3,1.3h7.2
			C139.9,18.6,140.4,18.2,140.6,17.7"/>
		<path class="st8" d="M126.6,10.5c-0.2,0.3-0.3,0.7-0.3,1.1v0.7c0,0.9,0.5,1.7,1.3,2c0.6-1.2,1.7-1.9,3-2v-0.7c0-0.5-0.2-1-0.5-1.3
			c-0.3,0-0.5,0-0.8,0C128.4,10.2,127.5,10.3,126.6,10.5"/>
		<path class="st8" d="M117.1,22.3c0,0.2,0,0.5,0,0.7l4.3-2c1-0.4,1.7-1.3,2-2.4l1.3-5.1c0.2-0.8,0.1-1.6-0.2-2.4
			C120,13.1,117.1,17.5,117.1,22.3"/>
		<path class="st7" d="M116.2,21.6c0,0.2,0,0.5,0,0.7l4.3-2c1-0.4,1.7-1.3,2-2.4l1.3-5.1c0.2-0.8,0.1-1.6-0.2-2.4
			C119.1,12.4,116.2,16.8,116.2,21.6z M125.7,9.8c-0.2,0.3-0.3,0.7-0.3,1.1v0.8c0,0.9,0.5,1.7,1.3,2c0.6-1.2,1.7-1.9,3-2v-0.8
			c0-0.5-0.2-1-0.5-1.3h-0.8C127.5,9.5,126.6,9.6,125.7,9.8z M139.7,17c-0.9-2.3-2.5-4.2-4.6-5.6H135c-2.8,0-5.1,2.3-5.1,5.1
			c0,0.7,0.6,1.3,1.3,1.3l0,0h7.2C139,17.9,139.5,17.5,139.7,17L139.7,17z M137.6,19.4h-5.8c-1.7,0-3,0.6-3,2.2
			c-0.1,0.7,0.3,1.4,0.9,1.8c0.1,0,0.2,0.1,0.3,0.1l3,1.3l2.4,4.3c0.2,0.6,1.4,1.5,1.9,1c2-2,3.2-4.7,3.4-7.5
			C140.6,22.6,140.3,19.4,137.6,19.4L137.6,19.4z M121,29.1l-1.8-5.7c-0.1-0.5,0.1-1,0.6-1.1c0.2-0.1,0.5,0,0.7,0.1l4.7,2.4
			c0.4,0.2,0.6,0.8,0.4,1.2c0,0.1-0.1,0.1-0.1,0.2l-2.9,3.4c-0.3,0.4-0.9,0.4-1.3,0.1C121.1,29.4,121,29.3,121,29.1z M116.2,21.6
			c0-6.7,5.5-12.2,12.2-12.2s12.2,5.5,12.2,12.2s-5.5,12.2-12.2,12.2S116.3,28.4,116.2,21.6C116.2,21.7,116.2,21.6,116.2,21.6
			L116.2,21.6z"/>
		<path class="st6" d="M246.9,12.1c0,0-16.3-2.6-13.7,13.6C249.5,28.2,246.9,12.1,246.9,12.1"/>
		<path class="st6" d="M218.5,9.6c0,0,16.3-2.6,13.7,13.6C215.9,25.7,218.5,9.6,218.5,9.6"/>
		<path class="st7" d="M232.1,24.4h-0.8c-0.2,7.5-1.3,9.8-1.3,9.8h3.3C233.4,34.2,232.4,31.9,232.1,24.4z M222.5,15.7l9,9
			 M217.6,10.9c0,0,16.4-2.6,13.9,13.9C215,27.3,217.6,10.9,217.6,10.9z M241.6,15.2l-9.6,9.6 M245.9,10.9c0,0-16.4-2.6-13.9,13.9
			C248.5,27.3,245.9,10.9,245.9,10.9L245.9,10.9z"/>
	</g>
</g>
</svg>
