<svg id="Camada_1" data-name="Camada 1" xmlns="http://www.w3.org/2000/svg" xmlns:xlink="http://www.w3.org/1999/xlink" viewBox="0 0 256 94.57">
  <defs>
    <style>
      .cls-1, .cls-5 {
        fill: none;
      }

      .cls-2 {
        fill: #ea8024;
      }

      .cls-3 {
        clip-path: url(#clip-path);
      }

      .cls-4 {
        fill: #ffe700;
      }

      .cls-5 {
        stroke: #383b3f;
        stroke-linecap: round;
        stroke-linejoin: round;
      }

      .cls-6 {
        fill: #0078b6;
      }

      .cls-7 {
        fill: #221f20;
      }
    </style>
    <clipPath id="clip-path">
      <rect class="cls-1" y="-417.43" width="256" height="512"/>
    </clipPath>
  </defs>
  <rect class="cls-2" y="-417.43" width="256" height="512"/>
  <g class="cls-3">
    <path class="cls-4" d="M38.4,66.55S22.14,64,24.7,80.12C41,82.66,38.4,66.55,38.4,66.55"/>
    <path class="cls-4" d="M10.07,64.08s16.26-2.57,13.69,13.57C7.48,80.19,10.07,64.08,10.07,64.08"/>
    <path class="cls-5" d="M23.66,78.89H22.9c-.23,7.48-1.27,9.78-1.27,9.78h3.3S23.89,86.37,23.66,78.89ZM14,70.18l9,9M9.14,65.33S25.6,62.7,23,79.18C6.52,81.78,9.14,65.33,9.14,65.33Zm24,4.29-9.55,9.56M37.41,65.33S21,62.7,23.56,79.18C40,81.78,37.41,65.33,37.41,65.33Z"/>
    <path class="cls-6" d="M63.71,74.54a6.93,6.93,0,1,1-6.92-6.6,6.76,6.76,0,0,1,6.92,6.6"/>
    <path class="cls-5" d="M64.83,63.48l-2.33,4M70,68.63l-4,2.34m5.93,4.7H67.2m2.78,7-4-2.34m-1.11,7.49-2.33-4m-4.71,5.93V85.09m-7,2.78,2.33-4M45.6,82.72l4-2.34m-5.93-4.71h4.67m-2.78-7,4,2.34m1.11-7.49,2.33,4m4.71-5.93v4.67m-6.63,9.41a6.63,6.63,0,1,1,6.63,6.64A6.63,6.63,0,0,1,51.16,75.67Z"/>
    <path class="cls-4" d="M168.2,65.64c-2.38,0-4.61-1.71-8.88-.31,0,0-3.91,1.42-5.59,7.12,0,0,5.85,1.5,8.77-.09,3.88-1.83,5.68-6.72,5.7-6.72"/>
    <path class="cls-4" d="M149.1,78.65c1.2,2.06.82,4.85,4.16,7.85,0,0,3.19,2.68,9,1.29,0,0-1.63-5.83-4.47-7.56-3.52-2.44-8.65-1.57-8.66-1.58"/>
    <path class="cls-4" d="M170.45,88.64c1.17-2.07,3.78-3.13,4.71-7.53,0,0,.73-4.1-3.37-8.4,0,0-4.23,4.32-4.31,7.64-.36,4.27,3,8.28,3,8.29"/>
    <path class="cls-5" d="M171.46,82.84s3.66-8.15-.38-14.73m.06,19.31c1.18-2.07,3.79-3.13,4.72-7.53,0,0,.72-4.09-3.37-8.4,0,0-4.23,4.32-4.31,7.64C167.82,83.4,171.15,87.41,171.14,87.42ZM153.61,80s5.22,7.24,12.94,7m-16.76-9.6c1.21,2,.83,4.84,4.17,7.84,0,0,3.18,2.68,9,1.29,0,0-1.63-5.82-4.46-7.56C154.94,76.57,149.8,77.45,149.79,77.44Zm15-11s-8.89.91-12.57,7.69m16.7-9.71c-2.39,0-4.61-1.7-8.88-.31,0,0-3.91,1.42-5.6,7.12,0,0,5.86,1.5,8.78-.09C167.08,69.31,168.88,64.43,168.9,64.42Z"/>
    <path class="cls-4" d="M89.16,81.61a5,5,0,1,1-5-4.75,4.86,4.86,0,0,1,5,4.75"/>
    <path class="cls-4" d="M108.18,81.61a5,5,0,1,1-5-4.75,4.86,4.86,0,0,1,5,4.75"/>
    <path class="cls-5" d="M89.68,71.35h-2.4a1.52,1.52,0,0,1,0-3h2.4a1.52,1.52,0,1,1,0,3Zm5.95-4.24H101a2.25,2.25,0,0,1,2.25,2.25M97.09,65h5.33a2.25,2.25,0,0,1,0,4.49h-1.31M88.48,74V71.36M85.4,82.43,101.11,74V69.49M85.4,82.43,88.48,74h12.63l3.47,8.39m4.77,0a4.77,4.77,0,1,1-4.77-4.77A4.76,4.76,0,0,1,109.35,82.43Zm-19.18,0a4.77,4.77,0,1,1-4.77-4.77A4.77,4.77,0,0,1,90.17,82.43Z"/>
    <path class="cls-6" d="M191.41,83.54a5,5,0,1,1-5-4.75,4.85,4.85,0,0,1,5,4.75"/>
    <path class="cls-6" d="M210.44,83.54a5,5,0,1,1-5-4.75,4.86,4.86,0,0,1,5,4.75"/>
    <path class="cls-5" d="M191.94,73.28h-2.4a1.52,1.52,0,1,1,0-3h2.4a1.52,1.52,0,0,1,0,3ZM197.88,69h5.34a2.25,2.25,0,0,1,2.24,2.25m-6.12-4.36h5.33a2.25,2.25,0,1,1,0,4.49h-1.31M190.74,76V73.29m-3.09,11.07L203.36,76V71.42M187.65,84.36,190.74,76h12.62l3.48,8.39m4.77,0a4.77,4.77,0,1,1-4.77-4.77A4.77,4.77,0,0,1,211.61,84.36Zm-19.19,0a4.77,4.77,0,1,1-4.77-4.77A4.76,4.76,0,0,1,192.42,84.36Z"/>
    <path class="cls-6" d="M121.86,84.27l-1.78-5.71a.89.89,0,0,1,1.25-1.06L126,79.85a.88.88,0,0,1,.27,1.37l-2.87,3.37a.89.89,0,0,1-1.53-.32"/>
    <path class="cls-6" d="M138.46,74.52h-5.82c-1.67,0-3,.6-3,2.26a1.7,1.7,0,0,0,.93,1.76c.09,0,.2.07.29.11l3,1.3,2.36,4.28c.18.59,1.45,1.45,1.88,1a12.14,12.14,0,0,0,3.4-7.51s-.32-3.23-3-3.23"/>
    <path class="cls-6" d="M140.59,72.19A12.22,12.22,0,0,0,136,66.61h-.11a5.09,5.09,0,0,0-5.09,5.09A1.34,1.34,0,0,0,132.15,73h7.2a1.34,1.34,0,0,0,1.24-.84"/>
    <path class="cls-6" d="M126.57,64.9a2.16,2.16,0,0,0-.29,1.06v.74a2.14,2.14,0,0,0,1.31,2,3.56,3.56,0,0,1,3-2V66a2.16,2.16,0,0,0-.47-1.34l-.78,0a12.22,12.22,0,0,0-2.73.3"/>
    <path class="cls-6" d="M117.11,76.78c0,.23,0,.46,0,.68l4.3-2a3.59,3.59,0,0,0,2-2.38L124.66,68a3.48,3.48,0,0,0-.25-2.38,12.19,12.19,0,0,0-7.3,11.16"/>
    <path class="cls-5" d="M116.24,76.09c0,.22,0,.45,0,.68l4.3-2a3.57,3.57,0,0,0,2-2.38l1.26-5.11a3.49,3.49,0,0,0-.25-2.38A12.19,12.19,0,0,0,116.24,76.09Zm9.45-11.88a2.19,2.19,0,0,0-.28,1.05V66a2.13,2.13,0,0,0,1.31,2,3.56,3.56,0,0,1,3-2v-.75a2.13,2.13,0,0,0-.47-1.33q-.39,0-.78,0A12.37,12.37,0,0,0,125.69,64.21Zm14,7.28a12.22,12.22,0,0,0-4.58-5.58H135A5.09,5.09,0,0,0,129.94,71a1.33,1.33,0,0,0,1.34,1.33h7.2A1.34,1.34,0,0,0,139.72,71.49Zm-2.13,2.34h-5.82c-1.67,0-3,.59-3,2.26a1.71,1.71,0,0,0,.93,1.76L130,78l3,1.29,2.36,4.28c.18.59,1.45,1.46,1.88,1a12.16,12.16,0,0,0,3.4-7.52S140.26,73.83,137.59,73.83ZM121,83.58l-1.78-5.72a.89.89,0,0,1,1.25-1.06l4.65,2.35a.89.89,0,0,1,.28,1.37l-2.88,3.37A.88.88,0,0,1,121,83.58Zm-4.75-7.49a12.19,12.19,0,1,1,12.19,12.18A12.19,12.19,0,0,1,116.24,76.09Z"/>
    <path class="cls-4" d="M246.86,66.55S230.6,64,233.16,80.12c16.29,2.54,13.7-13.57,13.7-13.57"/>
    <path class="cls-4" d="M218.53,64.08s16.26-2.57,13.7,13.57c-16.29,2.54-13.7-13.57-13.7-13.57"/>
    <path class="cls-5" d="M232.12,78.89h-.76c-.23,7.48-1.27,9.78-1.27,9.78h3.3S232.35,86.37,232.12,78.89Zm-9.66-8.71,9,9M217.61,65.33s16.45-2.63,13.85,13.85C215,81.78,217.61,65.33,217.61,65.33Zm24,4.29L232,79.18m13.85-13.85S229.42,62.7,232,79.18C248.49,81.78,245.87,65.33,245.87,65.33Z"/>
  </g>
  <rect class="cls-1" y="-417.43" width="256" height="512"/>
  <g class="cls-3">
    <path class="cls-7" d="M88.39,44.7a1.35,1.35,0,0,0-.7.41,1.36,1.36,0,0,0,.68,2.24c.25.06.54,0,.85.11a2.45,2.45,0,0,1,1.21.66,2.49,2.49,0,0,1,.69,1.32,6.35,6.35,0,0,0,.12.86,1.34,1.34,0,0,0,.34.54,1.36,1.36,0,0,0,2-1.89,1.27,1.27,0,0,0-.48-.34,2.53,2.53,0,0,0-.85-.14,2.46,2.46,0,0,1-.59-.16,1.93,1.93,0,0,1-.43-.22,2.45,2.45,0,0,1-.78-.82,2.45,2.45,0,0,1,.38-3,2.45,2.45,0,0,1,1.33-.69,6.31,6.31,0,0,0,.76-.09,1.32,1.32,0,0,0,.62-.35,1.36,1.36,0,0,0-1.87-2,1.33,1.33,0,0,0-.39.59,3.06,3.06,0,0,0-.09.74A2.5,2.5,0,0,1,89,44.65a3.81,3.81,0,0,0-.59.05"/>
    <path class="cls-7" d="M100.49,43.53a1.36,1.36,0,0,0,0-2.65c-.25-.06-.54-.05-.85-.11a2.47,2.47,0,0,1-1.9-2,5.94,5.94,0,0,0-.12-.86,1.38,1.38,0,0,0-.34-.54,1.36,1.36,0,0,0-2,1.89,1.29,1.29,0,0,0,.47.33,2.64,2.64,0,0,0,.86.15,2,2,0,0,1,.59.15,2.18,2.18,0,0,1,.43.22,2.48,2.48,0,0,1,1.11,2.07,2.47,2.47,0,0,1-2,2.43c-.25,0-.52,0-.76.08a1.34,1.34,0,0,0-.62.36,1.36,1.36,0,1,0,2.25,1.38,3.14,3.14,0,0,0,.1-.74,2.52,2.52,0,0,1,.7-1.43,2.45,2.45,0,0,1,1.46-.7,5.22,5.22,0,0,0,.58,0"/>
    <path class="cls-7" d="M95,50.16a1.34,1.34,0,0,0,.41.71,1.37,1.37,0,0,0,1.88,0,1.46,1.46,0,0,0,.36-.64c.06-.25,0-.54.11-.85a2.47,2.47,0,0,1,2-1.9,6.35,6.35,0,0,0,.86-.12,1.46,1.46,0,0,0,.54-.34A1.36,1.36,0,0,0,99.28,45a1.32,1.32,0,0,0-.34.47,2.62,2.62,0,0,0-.14.86,3,3,0,0,1-.15.59,2.93,2.93,0,0,1-.23.43,2.55,2.55,0,0,1-.82.78,2.49,2.49,0,0,1-3-.38,2.54,2.54,0,0,1-.69-1.34c0-.24,0-.51-.08-.75a1.43,1.43,0,0,0-.36-.62,1.36,1.36,0,0,0-2,1.87,1.31,1.31,0,0,0,.59.38,3.07,3.07,0,0,0,.74.1,2.46,2.46,0,0,1,1.42.7A2.52,2.52,0,0,1,95,49.58a3.58,3.58,0,0,0,0,.58"/>
    <path class="cls-7" d="M93.86,38.06a1.38,1.38,0,0,0-.41-.71,1.36,1.36,0,0,0-1.88,0,1.28,1.28,0,0,0-.36.64c-.06.24,0,.53-.11.85a2.39,2.39,0,0,1-.67,1.21,2.46,2.46,0,0,1-1.31.69,6.13,6.13,0,0,0-.86.11,1.37,1.37,0,0,0-.53,2.26,1.37,1.37,0,0,0,1.88,0,1.33,1.33,0,0,0,.33-.48,2.54,2.54,0,0,0,.15-.85,2.44,2.44,0,0,1,.15-.59,1.61,1.61,0,0,1,.23-.43,2.45,2.45,0,0,1,.82-.78,2.38,2.38,0,0,1,1.24-.34,2.44,2.44,0,0,1,1.74.72A2.48,2.48,0,0,1,95,41.78c0,.25,0,.51.08.76a1.39,1.39,0,0,0,.36.62,1.36,1.36,0,0,0,2-1.87,1.39,1.39,0,0,0-.59-.39,3.76,3.76,0,0,0-.74-.1,2.4,2.4,0,0,1-1.42-.7,2.44,2.44,0,0,1-.71-1.46,5.67,5.67,0,0,0,0-.58"/>
    <path class="cls-7" d="M101.16,39.29a1.33,1.33,0,0,1-1.9,0,1.34,1.34,0,0,1,1.9-1.9,1.33,1.33,0,0,1,0,1.9"/>
    <path class="cls-7" d="M101.16,50.83a1.33,1.33,0,0,1-1.9,0,1.34,1.34,0,0,1,1.9-1.9,1.33,1.33,0,0,1,0,1.9"/>
    <path class="cls-7" d="M89.63,39.29a1.35,1.35,0,1,1-1.91-1.9,1.35,1.35,0,0,1,1.91,1.9"/>
    <path class="cls-7" d="M89.63,50.83a1.35,1.35,0,0,1-1.91-1.9,1.35,1.35,0,1,1,1.91,1.9"/>
    <path class="cls-7" d="M106.72,49.45l-.23-.07-.2,0a.43.43,0,0,0-.38.2,1,1,0,0,0-.13.55,1.08,1.08,0,0,0,.11.52.39.39,0,0,0,.37.22,1,1,0,0,0,.25,0l.2-.07.15.29a1.51,1.51,0,0,1-.28.1l-.3,0a.78.78,0,0,1-.69-.3,1.26,1.26,0,0,1-.22-.76,1.2,1.2,0,0,1,.24-.77.83.83,0,0,1,.69-.3l.25,0a.91.91,0,0,1,.29.1Z"/>
    <rect class="cls-7" x="107.72" y="49.08" width="0.39" height="2.05"/>
    <path class="cls-7" d="M110.54,51.13h-1.43V49.08h1.22l.06.31h-.89v.55H110l.07.31h-.61v.58h1Zm-1-2.23h-.37l.46-.5h.22l.46.5h-.36l-.2-.2Z"/>
    <polygon class="cls-7" points="113.08 49.08 113.08 51.13 112.68 51.13 111.73 49.76 111.73 51.13 111.34 51.13 111.34 49.08 111.73 49.08 112.68 50.45 112.68 49.08 113.08 49.08"/>
    <path class="cls-7" d="M115.34,49.45l-.23-.07-.21,0a.42.42,0,0,0-.37.2,1,1,0,0,0-.14.55,1.21,1.21,0,0,0,.11.52.41.41,0,0,0,.38.22.88.88,0,0,0,.24,0l.21-.07.15.29a1.63,1.63,0,0,1-.29.1l-.29,0a.81.81,0,0,1-.7-.3,1.33,1.33,0,0,1-.21-.76,1.2,1.2,0,0,1,.24-.77.83.83,0,0,1,.69-.3l.25,0a1,1,0,0,1,.29.1Z"/>
    <rect class="cls-7" x="116.34" y="49.08" width="0.39" height="2.05"/>
    <path class="cls-7" d="M118.62,49.08l.8,2-.4.05-.18-.48h-.78l-.18.48h-.39l.8-2.05Zm-.18.54-.27.71h.55Z"/>
    <path class="cls-7" d="M120.21,50.69a.23.23,0,0,1,.16.08.29.29,0,0,1,.07.19.64.64,0,0,1-.12.35.78.78,0,0,1-.28.29l-.09-.19.13-.12a.26.26,0,0,0,.07-.16.13.13,0,0,1-.1-.07.2.2,0,0,1-.06-.15.24.24,0,0,1,.06-.15.2.2,0,0,1,.16-.07"/>
    <polygon class="cls-7" points="122.18 49.08 123.84 49.08 123.91 49.39 123.2 49.39 123.2 51.13 122.81 51.13 122.81 49.39 122.18 49.39 122.18 49.08"/>
    <polygon class="cls-7" points="126.1 51.13 124.66 51.13 124.66 49.08 125.88 49.08 125.94 49.39 125.05 49.39 125.05 49.94 125.6 49.94 125.66 50.25 125.05 50.25 125.05 50.83 126.03 50.83 126.1 51.13"/>
    <path class="cls-7" d="M128.17,49.45l-.23-.07-.21,0a.44.44,0,0,0-.38.2,1.09,1.09,0,0,0-.13.55,1.21,1.21,0,0,0,.11.52.41.41,0,0,0,.38.22,1,1,0,0,0,.24,0l.21-.07.15.29a1.63,1.63,0,0,1-.29.1l-.29,0a.81.81,0,0,1-.7-.3,1.34,1.34,0,0,1-.22-.76,1.2,1.2,0,0,1,.24-.77.83.83,0,0,1,.69-.3l.25,0a1,1,0,0,1,.3.1Z"/>
    <polygon class="cls-7" points="130.9 49.08 130.9 51.13 130.51 51.13 129.56 49.76 129.56 51.13 129.17 51.13 129.17 49.08 129.56 49.08 130.51 50.45 130.51 49.08 130.9 49.08"/>
    <path class="cls-7" d="M131.81,50.11a1.21,1.21,0,0,1,.25-.77.9.9,0,0,1,.7-.31.81.81,0,0,1,.71.31,1.2,1.2,0,0,1,.24.75,1.21,1.21,0,0,1-.25.78.87.87,0,0,1-.7.3.81.81,0,0,1-.71-.31,1.16,1.16,0,0,1-.24-.75m.41,0a1,1,0,0,0,.13.53.44.44,0,0,0,.41.2.48.48,0,0,0,.39-.18.88.88,0,0,0,.15-.57.91.91,0,0,0-.13-.52.45.45,0,0,0-.41-.21.47.47,0,0,0-.39.2.92.92,0,0,0-.15.55"/>
    <polygon class="cls-7" points="135.97 51.13 134.62 51.13 134.62 49.08 135.01 49.08 135.01 50.83 135.91 50.83 135.97 51.13"/>
    <path class="cls-7" d="M136.66,50.11a1.15,1.15,0,0,1,.25-.77.87.87,0,0,1,.69-.31.82.82,0,0,1,.72.31,1.19,1.19,0,0,1,.23.75,1.16,1.16,0,0,1-.25.78.85.85,0,0,1-.7.3.83.83,0,0,1-.71-.31,1.22,1.22,0,0,1-.23-.75m.41,0a1,1,0,0,0,.13.53.42.42,0,0,0,.4.2.49.49,0,0,0,.4-.18.88.88,0,0,0,.15-.57,1,1,0,0,0-.13-.52.46.46,0,0,0-.41-.21.47.47,0,0,0-.39.2.92.92,0,0,0-.15.55"/>
    <path class="cls-7" d="M140.23,50H141v1a1,1,0,0,1-.28.11,1.37,1.37,0,0,1-.36,0,.87.87,0,0,1-.72-.3,1.21,1.21,0,0,1-.24-.76,1.11,1.11,0,0,1,.27-.77,1,1,0,0,1,.74-.3l.26,0a1,1,0,0,1,.3.1l-.12.28-.22-.06a.62.62,0,0,0-.21,0,.56.56,0,0,0-.44.18.81.81,0,0,0-.17.56.87.87,0,0,0,.14.54.45.45,0,0,0,.4.2l.17,0,.13,0v-.5h-.43Z"/>
    <rect class="cls-7" x="141.93" y="49.08" width="0.39" height="2.05"/>
    <path class="cls-7" d="M144.21,49.08l.79,2-.39.05-.18-.48h-.78l-.18.48h-.4l.8-2.05Zm-.18.54-.27.71h.55Z"/>
    <polygon class="cls-7" points="148.39 51.13 146.96 51.13 146.96 49.08 148.18 49.08 148.24 49.39 147.34 49.39 147.34 49.94 147.89 49.94 147.96 50.25 147.34 50.25 147.34 50.83 148.33 50.83 148.39 51.13"/>
    <rect class="cls-7" x="150.39" y="49.08" width="0.39" height="2.05"/>
    <polygon class="cls-7" points="153.5 49.08 153.5 51.13 153.11 51.13 152.16 49.76 152.16 51.13 151.77 51.13 151.77 49.08 152.16 49.08 153.11 50.45 153.11 49.08 153.5 49.08"/>
    <path class="cls-7" d="M154.41,50.11a1.15,1.15,0,0,1,.25-.77.89.89,0,0,1,.7-.31.81.81,0,0,1,.71.31,1.2,1.2,0,0,1,.24.75,1.21,1.21,0,0,1-.25.78.87.87,0,0,1-.7.3.85.85,0,0,1-.72-.31,1.22,1.22,0,0,1-.23-.75m.41,0a1,1,0,0,0,.13.53.43.43,0,0,0,.4.2.49.49,0,0,0,.4-.18.88.88,0,0,0,.15-.57,1,1,0,0,0-.13-.52.45.45,0,0,0-.41-.21.47.47,0,0,0-.39.2.92.92,0,0,0-.15.55"/>
    <polygon class="cls-7" points="157.78 51.13 156.98 49.13 157.37 49.08 157.95 50.6 158.51 49.08 158.91 49.08 158.11 51.13 157.78 51.13"/>
    <path class="cls-7" d="M160.56,49.08l.8,2-.39.05-.19-.48H160l-.18.48h-.39l.8-2.05Zm-.17.54-.27.71h.54Z"/>
    <path class="cls-7" d="M163.39,49.45l-.23-.07-.21,0a.44.44,0,0,0-.38.2,1.09,1.09,0,0,0-.13.55,1.21,1.21,0,0,0,.11.52.41.41,0,0,0,.38.22.93.93,0,0,0,.24,0l.21-.07.15.29-.22.08-.24.05,0,0a.33.33,0,0,1,.15.11.27.27,0,0,1,.06.16.25.25,0,0,1-.12.23.45.45,0,0,1-.26.08l-.15,0-.14-.06.09-.23.1,0,.1,0H163a.05.05,0,0,0,0,0s0-.05-.07-.08a.48.48,0,0,0-.19,0l.07-.2a.71.71,0,0,1-.57-.34,1.26,1.26,0,0,1-.19-.71,1.2,1.2,0,0,1,.24-.77A.83.83,0,0,1,163,49l.26,0a1,1,0,0,1,.29.1Z"/>
    <path class="cls-7" d="M165.29,49.08l.8,2-.4.05-.18-.48h-.78l-.18.48h-.4l.81-2.05Zm-.43-.21h-.26a.39.39,0,0,1,.1-.29.38.38,0,0,1,.23-.08.28.28,0,0,1,.18.06.3.3,0,0,0,.15,0,.07.07,0,0,0,.06,0,.09.09,0,0,0,0-.06h.24a.33.33,0,0,1-.1.28.37.37,0,0,1-.22.08.3.3,0,0,1-.18-.05.2.2,0,0,0-.14-.06.06.06,0,0,0-.06,0,.13.13,0,0,0,0,.07m.25.75-.27.71h.55Z"/>
    <path class="cls-7" d="M166.76,50.11a1.15,1.15,0,0,1,.25-.77.87.87,0,0,1,.7-.31.81.81,0,0,1,.71.31,1.19,1.19,0,0,1,.23.75,1.16,1.16,0,0,1-.25.78,1,1,0,0,1-1.41,0,1.22,1.22,0,0,1-.23-.75m.41,0a1,1,0,0,0,.13.53.42.42,0,0,0,.4.2.49.49,0,0,0,.4-.18.88.88,0,0,0,.15-.57,1,1,0,0,0-.13-.52.46.46,0,0,0-.41-.21.47.47,0,0,0-.39.2.92.92,0,0,0-.15.55"/>
    <path class="cls-7" d="M112.09,38.62l-1-.31a4.14,4.14,0,0,0-1.1-.12,2.33,2.33,0,0,0-2,1.05,4.81,4.81,0,0,0-.72,2.79,5.54,5.54,0,0,0,.6,2.65,2.07,2.07,0,0,0,2,1.12,5.07,5.07,0,0,0,1.22-.13,7,7,0,0,0,1-.32l.62,1.23a4.84,4.84,0,0,1-1.32.45,7.07,7.07,0,0,1-1.41.17,3.77,3.77,0,0,1-3.36-1.51,6.21,6.21,0,0,1-1-3.65,6,6,0,0,1,1.15-3.75A3.94,3.94,0,0,1,110,36.8a6.91,6.91,0,0,1,1.24.15,4.2,4.2,0,0,1,1.36.47Z"/>
    <rect class="cls-7" x="114.67" y="37.01" width="1.64" height="9.99"/>
    <polygon class="cls-7" points="125.83 38.31 122.49 38.31 122.49 46.99 120.81 46.99 120.81 38.31 117.74 38.31 117.74 37.01 125.58 37.01 125.83 38.31"/>
    <rect class="cls-7" x="126.67" y="37.01" width="2.67" height="9.99"/>
    <polygon class="cls-7" points="130.81 46.99 130.81 37.01 133.29 37.01 137.14 42.42 137.14 37.01 139.81 37.01 139.81 46.99 137.32 46.99 133.48 41.73 133.48 46.99 130.81 46.99"/>
    <path class="cls-7" d="M140.84,42a5.48,5.48,0,0,1,1.31-3.77,4.5,4.5,0,0,1,3.55-1.47,4.43,4.43,0,0,1,3.66,1.5,5.6,5.6,0,0,1,1.22,3.64,5.53,5.53,0,0,1-1.29,3.79,4.54,4.54,0,0,1-3.59,1.47,4.45,4.45,0,0,1-3.63-1.51A5.58,5.58,0,0,1,140.84,42m2.75,0a4.18,4.18,0,0,0,.48,2.1,1.72,1.72,0,0,0,1.62.83,1.85,1.85,0,0,0,1.58-.75,3.76,3.76,0,0,0,.56-2.27,4,4,0,0,0-.49-2.08,1.73,1.73,0,0,0-1.61-.83,1.83,1.83,0,0,0-1.57.82,3.77,3.77,0,0,0-.57,2.18"/>
    <polygon class="cls-7" points="154.16 46.99 150.43 37.27 153.06 37.01 155.53 43.8 157.92 37.01 160.58 37.01 156.83 46.99 154.16 46.99"/>
    <path class="cls-7" d="M164.94,37l3.73,9.73L166,47l-.72-2h-3.45l-.69,2h-2.66l3.75-10Zm-1.38,3.21-1,2.71h2Z"/>
  </g>
</svg>
