<svg id="Camada_1" data-name="Camada 1" xmlns="http://www.w3.org/2000/svg" xmlns:xlink="http://www.w3.org/1999/xlink" viewBox="0 0 256 205.95">
  <defs>
    <style>
      .cls-1, .cls-18 {
        fill: none;
      }

      .cls-2 {
        clip-path: url(#clip-path);
      }

      .cls-3 {
        clip-path: url(#clip-path-3);
      }

      .cls-4 {
        clip-path: url(#clip-path-5);
      }

      .cls-5 {
        fill: #d8d600;
      }

      .cls-6 {
        fill: #ea8024;
      }

      .cls-14, .cls-7 {
        font-size: 15.32px;
        font-family: Montserrat-Black, Montserrat;
        font-weight: 800;
      }

      .cls-14, .cls-21, .cls-7 {
        fill: #221f20;
      }

      .cls-8 {
        letter-spacing: -0.02em;
      }

      .cls-9 {
        letter-spacing: -0.02em;
      }

      .cls-10 {
        letter-spacing: -0.02em;
      }

      .cls-11, .cls-14 {
        letter-spacing: -0.02em;
      }

      .cls-12 {
        letter-spacing: -0.02em;
      }

      .cls-13 {
        letter-spacing: -0.02em;
      }

      .cls-15 {
        letter-spacing: 0em;
      }

      .cls-16 {
        letter-spacing: -0.02em;
      }

      .cls-17 {
        fill: #ffe700;
      }

      .cls-18 {
        stroke: #383b3f;
        stroke-linecap: round;
        stroke-linejoin: round;
      }

      .cls-19 {
        fill: #0078b6;
      }

      .cls-20 {
        fill: #fff;
      }
    </style>
    <clipPath id="clip-path">
      <rect class="cls-1" x="-27.74" y="-1028.21" width="256" height="512"/>
    </clipPath>
    <clipPath id="clip-path-3">
      <rect class="cls-1" y="-306.05" width="256" height="512"/>
    </clipPath>
    <clipPath id="clip-path-5">
      <rect class="cls-1" y="225.95" width="256" height="512"/>
    </clipPath>
  </defs>
  <g class="cls-3">
    <g class="cls-3">
      <g class="cls-4">
        <path class="cls-5" d="M202.7,153.7c-11.14-5.47-19.56-1.61-40.38-.66-16.79.76-22.65-1.24-23.36,1-1,3.16,9.26,11.84,21.26,13.46l.57-.16.58-.21c.19-.07.39-.13.58-.21.38-.16.77-.33,1.15-.52a41.63,41.63,0,0,0,4.67-2.79c.8-.53,1.62-1.07,2.47-1.59l.33-.19a3.37,3.37,0,0,1,.32-.19l.67-.37.67-.37.17-.1.17-.08.35-.17,1.38-.67,1.4-.59.34-.14.36-.13.7-.25c.46-.16.92-.34,1.39-.47l1.38-.41,1.38-.34.67-.16.68-.12,1.33-.25a39.23,39.23,0,0,1,9.41-.3c.67,0,1.3.14,1.9.22l.44.06c.15,0,.29,0,.43.06l.81.16c1.05.17,1.93.42,2.65.6l.27.07.24.07.44.14.7.21.57.18-.59-.13-.7-.16-.45-.1-.25,0-.27,0c-.73-.12-1.62-.31-2.67-.41l-.81-.1-.42,0-.44,0c-.6,0-1.22-.1-1.88-.1a42.39,42.39,0,0,0-9.2.71l-1.29.28-.66.14-.65.17-1.33.36-1.33.43c-.46.13-.9.31-1.35.47l-.67.25-.34.13-.34.14c-.44.2-.89.39-1.35.58l-1.34.65-.33.17-.17.08-.16.09-.65.36-.65.35-.32.18-.31.19c-.84.5-1.65,1-2.46,1.53a39.05,39.05,0,0,1-4.87,2.75l-.94.39a28.41,28.41,0,0,0,3.06,0c7.14-.44,7.56-3.46,17.35-5.67,15.43-3.49,26.85,1.2,27.7-1.34.54-1.64-3.76-4.92-8-7"/>
        <path class="cls-5" d="M216.66,301.34c1.47.06,2.23.09,3.18.15,1.23.07,2.25.16,3,.22q-16.86-55.63-33.71-111.27L180.58,193q16.39,54.1,32.8,108.21l3.28.11"/>
        <rect class="cls-5" x="186.98" y="199.57" width="135.18" height="1.11" transform="translate(-14.06 19.32) rotate(-4.23)"/>
        <rect class="cls-5" x="219.54" y="200.2" width="2.11" height="3.38" transform="translate(-15.09 17.84) rotate(-4.48)"/>
        <path class="cls-5" d="M161.7,231.82l-1.11-.1a34.45,34.45,0,0,1,2.35-9.44,28.16,28.16,0,0,1,10.8-13.5,27.8,27.8,0,0,1,12.83-4.31l.09,1.1a26.73,26.73,0,0,0-12.31,4.14c-10.43,6.76-12.32,18.63-12.65,22.11"/>
        <path class="cls-5" d="M283.87,261.43c-22.75,25.95-41.8,46.46-41.8,46.46s17.83-21.58,40.57-47.54,41.81-46.46,41.81-46.46-17.83,21.58-40.58,47.54m42.29-64.11q-46.83,53.46-93.67,106.91a17.47,17.47,0,0,1,5.51,3.4,17.12,17.12,0,0,1,3.61,4.67l92.78-105.81c-.34-.92-.68-1.87-1-2.87Z"/>
        <path class="cls-5" d="M255.16,195.94c-34.2,2.59-62,3.88-62,3.88s27.67-2.92,61.88-5.51,62-3.89,62-3.89-27.67,2.92-61.88,5.52m72.16-11.63L185.4,194.69l.65,8.87L328,193.18l-.65-8.85v0Z"/>
      </g>
    </g>
    <rect class="cls-6" y="-306.05" width="256" height="512"/>
    <text class="cls-7" transform="translate(21.03 29.88)"><tspan class="cls-8">A </tspan><tspan class="cls-9" x="16.37" y="0">Pr</tspan><tspan class="cls-8" x="34.13" y="0">efeit</tspan><tspan class="cls-10" x="71.26" y="0">u</tspan><tspan class="cls-11" x="81.65" y="0">ra se</tspan><tspan class="cls-9" x="120.23" y="0">gu</tspan><tspan class="cls-8" x="141.21" y="0">e </tspan><tspan class="cls-9" x="155.23" y="0">u</tspan><tspan class="cls-12" x="165.62" y="0">sa</tspan><tspan class="cls-13" x="183.49" y="0">n</tspan><tspan class="cls-8" x="193.94" y="0">d</tspan><tspan class="cls-9" x="204.45" y="0">o</tspan><tspan x="214.53" y="0"> </tspan></text>
    <text class="cls-14" transform="translate(21.03 47.79)">a tecn<tspan class="cls-9" x="49.88" y="0">o</tspan><tspan class="cls-8" x="59.96" y="0">l</tspan><tspan class="cls-9" x="64.67" y="0">og</tspan><tspan x="85.34" y="0">ia a fa</tspan><tspan class="cls-9" x="133.39" y="0">vo</tspan><tspan class="cls-15" x="153.04" y="0">r</tspan></text>
    <text class="cls-7" transform="translate(21.03 65.7)"><tspan class="cls-8">das </tspan><tspan class="cls-10" x="32.69" y="0">po</tspan><tspan class="cls-11" x="53.19" y="0">líticas p</tspan><tspan class="cls-16" x="115.8" y="0">úb</tspan><tspan class="cls-8" x="136.61" y="0">licas</tspan><tspan x="173.02" y="0">.</tspan></text>
    <g class="cls-3">
      <path class="cls-17" d="M38.4,177.92s-16.26-2.57-13.7,13.57C41,194,38.4,177.92,38.4,177.92"/>
      <path class="cls-17" d="M10.07,175.45S26.33,172.88,23.76,189c-16.28,2.54-13.69-13.57-13.69-13.57"/>
      <path class="cls-18" d="M23.66,190.26H22.9c-.23,7.48-1.27,9.79-1.27,9.79h3.3S23.89,197.74,23.66,190.26ZM14,181.55l9,9M9.14,176.7S25.6,174.08,23,190.55C6.52,193.15,9.14,176.7,9.14,176.7Zm24,4.3-9.55,9.55M37.41,176.7S21,174.08,23.56,190.55C40,193.15,37.41,176.7,37.41,176.7Z"/>
      <path class="cls-19" d="M63.71,185.91a6.93,6.93,0,1,1-6.92-6.6,6.76,6.76,0,0,1,6.92,6.6"/>
      <path class="cls-18" d="M64.83,174.85l-2.33,4M70,180l-4,2.33m5.93,4.71H67.2m2.78,7-4-2.34m-1.11,7.49-2.33-4m-4.71,5.93v-4.67m-7,2.78,2.33-4m-7.48-1.11,4-2.34m-5.93-4.7h4.67m-2.78-7,4,2.33m1.11-7.49,2.33,4M57.79,173v4.66m-6.63,9.42a6.63,6.63,0,1,1,6.63,6.63A6.63,6.63,0,0,1,51.16,187.05Z"/>
      <path class="cls-17" d="M168.2,177c-2.38,0-4.61-1.71-8.88-.32,0,0-3.91,1.42-5.59,7.12,0,0,5.85,1.5,8.77-.09,3.88-1.83,5.68-6.71,5.7-6.71"/>
      <path class="cls-17" d="M149.1,190c1.2,2.05.82,4.84,4.16,7.84,0,0,3.19,2.68,9,1.29,0,0-1.63-5.82-4.47-7.56-3.52-2.44-8.65-1.56-8.66-1.57"/>
      <path class="cls-17" d="M170.45,200c1.17-2.07,3.78-3.13,4.71-7.52,0,0,.73-4.1-3.37-8.41,0,0-4.23,4.32-4.31,7.64-.36,4.27,3,8.28,3,8.29"/>
      <path class="cls-18" d="M171.46,194.21s3.66-8.14-.38-14.72m.06,19.31c1.18-2.07,3.79-3.14,4.72-7.53,0,0,.72-4.1-3.37-8.41,0,0-4.23,4.32-4.31,7.64C167.82,194.78,171.15,198.78,171.14,198.8Zm-17.53-7.43s5.22,7.24,12.94,7m-16.76-9.6c1.21,2.05.83,4.84,4.17,7.84,0,0,3.18,2.68,9,1.29,0,0-1.63-5.82-4.46-7.55C154.94,187.94,149.8,188.82,149.79,188.81Zm15-11s-8.89.9-12.57,7.69m16.7-9.71c-2.39,0-4.61-1.71-8.88-.32,0,0-3.91,1.42-5.6,7.12,0,0,5.86,1.5,8.78-.09C167.08,180.69,168.88,175.8,168.9,175.8Z"/>
      <path class="cls-17" d="M89.16,193a5,5,0,1,1-5-4.74,4.87,4.87,0,0,1,5,4.74"/>
      <path class="cls-17" d="M108.18,193a5,5,0,1,1-5-4.74,4.87,4.87,0,0,1,5,4.74"/>
      <path class="cls-18" d="M89.68,182.72h-2.4a1.52,1.52,0,0,1,0-3h2.4a1.52,1.52,0,1,1,0,3Zm5.95-4.24H101a2.25,2.25,0,0,1,2.25,2.25m-6.12-4.35h5.33a2.24,2.24,0,0,1,0,4.48h-1.31m-12.63,4.55v-2.67M85.4,193.81l15.71-8.4v-4.55M85.4,193.81l3.08-8.4h12.63l3.47,8.4m4.77,0a4.77,4.77,0,1,1-4.77-4.77A4.76,4.76,0,0,1,109.35,193.81Zm-19.18,0A4.77,4.77,0,1,1,85.4,189,4.77,4.77,0,0,1,90.17,193.81Z"/>
      <path class="cls-19" d="M191.41,194.91a5,5,0,1,1-5-4.74,4.86,4.86,0,0,1,5,4.74"/>
      <path class="cls-19" d="M210.44,194.91a5,5,0,1,1-5-4.74,4.87,4.87,0,0,1,5,4.74"/>
      <path class="cls-18" d="M191.94,184.65h-2.4a1.52,1.52,0,1,1,0-3h2.4a1.52,1.52,0,0,1,0,3Zm5.94-4.24h5.34a2.25,2.25,0,0,1,2.24,2.25m-6.12-4.35h5.33a2.24,2.24,0,1,1,0,4.48h-1.31m-12.62,4.55v-2.67m-3.09,11.07,15.71-8.4v-4.55m-15.71,13,3.09-8.4h12.62l3.48,8.4m4.77,0a4.77,4.77,0,1,1-4.77-4.77A4.77,4.77,0,0,1,211.61,195.74Zm-19.19,0a4.77,4.77,0,1,1-4.77-4.77A4.76,4.76,0,0,1,192.42,195.74Z"/>
      <path class="cls-19" d="M121.86,195.65l-1.78-5.72a.89.89,0,0,1,1.25-1.06l4.66,2.35a.89.89,0,0,1,.27,1.37L123.39,196a.89.89,0,0,1-1.53-.31"/>
      <path class="cls-19" d="M138.46,185.9h-5.82c-1.67,0-3,.59-3,2.26a1.71,1.71,0,0,0,.93,1.76l.29.11,3,1.29,2.36,4.28c.18.59,1.45,1.46,1.88,1a12.16,12.16,0,0,0,3.4-7.52s-.32-3.22-3-3.22"/>
      <path class="cls-19" d="M140.59,183.56A12.22,12.22,0,0,0,136,178h-.11a5.09,5.09,0,0,0-5.09,5.09,1.33,1.33,0,0,0,1.34,1.33h7.2a1.34,1.34,0,0,0,1.24-.84"/>
      <path class="cls-19" d="M126.57,176.28a2.09,2.09,0,0,0-.29,1.05v.75a2.13,2.13,0,0,0,1.31,2,3.56,3.56,0,0,1,3-2v-.75a2.18,2.18,0,0,0-.47-1.34l-.78,0a12.22,12.22,0,0,0-2.73.31"/>
      <path class="cls-19" d="M117.11,188.16c0,.22,0,.45,0,.68l4.3-2a3.57,3.57,0,0,0,2-2.38l1.26-5.11a3.49,3.49,0,0,0-.25-2.38,12.19,12.19,0,0,0-7.3,11.17"/>
      <path class="cls-18" d="M116.24,187.46c0,.23,0,.45,0,.68l4.3-2a3.55,3.55,0,0,0,2-2.37l1.26-5.12a3.5,3.5,0,0,0-.25-2.38A12.22,12.22,0,0,0,116.24,187.46Zm9.45-11.88a2.2,2.2,0,0,0-.28,1.06v.74a2.15,2.15,0,0,0,1.31,2,3.56,3.56,0,0,1,3-2v-.74a2.14,2.14,0,0,0-.47-1.34q-.39,0-.78,0A12.37,12.37,0,0,0,125.69,175.58Zm14,7.28a12.14,12.14,0,0,0-4.58-5.57H135a5.08,5.08,0,0,0-5.09,5.08,1.34,1.34,0,0,0,1.34,1.34h7.2A1.34,1.34,0,0,0,139.72,182.86Zm-2.13,2.34h-5.82c-1.67,0-3,.6-3,2.26a1.7,1.7,0,0,0,.93,1.76c.09.05.2.07.29.11l3,1.3,2.36,4.28c.18.58,1.45,1.45,1.88,1a12.14,12.14,0,0,0,3.4-7.52S140.26,185.2,137.59,185.2ZM121,195l-1.78-5.72a.89.89,0,0,1,1.25-1l4.65,2.34a.89.89,0,0,1,.28,1.37l-2.88,3.37A.88.88,0,0,1,121,195Zm-4.75-7.49a12.19,12.19,0,1,1,12.19,12.18A12.19,12.19,0,0,1,116.24,187.46Z"/>
      <path class="cls-17" d="M246.86,177.92s-16.26-2.57-13.7,13.57c16.29,2.54,13.7-13.57,13.7-13.57"/>
      <path class="cls-17" d="M218.53,175.45s16.26-2.57,13.7,13.57c-16.29,2.54-13.7-13.57-13.7-13.57"/>
      <path class="cls-18" d="M232.12,190.26h-.76c-.23,7.48-1.27,9.79-1.27,9.79h3.3S232.35,197.74,232.12,190.26Zm-9.66-8.71,9,9M217.61,176.7s16.45-2.62,13.85,13.85C215,193.15,217.61,176.7,217.61,176.7Zm24,4.3L232,190.55m13.85-13.85s-16.45-2.62-13.85,13.85C248.49,193.15,245.87,176.7,245.87,176.7Z"/>
      <rect class="cls-20" y="113.49" width="256" height="46.49"/>
    </g>
    <g class="cls-3">
      <path class="cls-21" d="M88.39,95.7a1.35,1.35,0,0,0-.7.41,1.36,1.36,0,0,0,.68,2.24c.25.06.54,0,.85.11a2.39,2.39,0,0,1,1.21.67,2.42,2.42,0,0,1,.69,1.31,6.35,6.35,0,0,0,.12.86,1.34,1.34,0,0,0,.34.54,1.36,1.36,0,0,0,2-1.89,1.27,1.27,0,0,0-.48-.34,2.53,2.53,0,0,0-.85-.14,3,3,0,0,1-.59-.15,2.5,2.5,0,0,1-.43-.23,2.45,2.45,0,0,1-.78-.82,2.46,2.46,0,0,1,1.71-3.67c.25,0,.52,0,.76-.08a1.43,1.43,0,0,0,.62-.36,1.36,1.36,0,0,0-1.87-2,1.33,1.33,0,0,0-.39.59,3.06,3.06,0,0,0-.09.74A2.5,2.5,0,0,1,89,95.65a3.81,3.81,0,0,0-.59,0"/>
      <path class="cls-21" d="M100.49,94.53a1.41,1.41,0,0,0,.71-.41,1.36,1.36,0,0,0-.68-2.24c-.25-.06-.54,0-.85-.11a2.47,2.47,0,0,1-1.9-2,6.14,6.14,0,0,0-.12-.86,1.38,1.38,0,0,0-.34-.54,1.36,1.36,0,0,0-2,1.89,1.29,1.29,0,0,0,.47.33,2.64,2.64,0,0,0,.86.15,2.44,2.44,0,0,1,.59.15,1.78,1.78,0,0,1,.43.23,2.36,2.36,0,0,1,.78.82,2.47,2.47,0,0,1,.33,1.24,2.43,2.43,0,0,1-.71,1.73,2.46,2.46,0,0,1-1.33.7c-.25,0-.52,0-.76.08a1.34,1.34,0,0,0-.62.36,1.36,1.36,0,1,0,2.25,1.38,3.14,3.14,0,0,0,.1-.74,2.47,2.47,0,0,1,2.16-2.13,5.22,5.22,0,0,0,.58,0"/>
      <path class="cls-21" d="M95,101.16a1.34,1.34,0,0,0,.41.71,1.37,1.37,0,0,0,1.88,0,1.46,1.46,0,0,0,.36-.64c.06-.25,0-.54.11-.85a2.47,2.47,0,0,1,2-1.9,6.35,6.35,0,0,0,.86-.12,1.46,1.46,0,0,0,.54-.34,1.36,1.36,0,0,0-1.89-2,1.32,1.32,0,0,0-.34.47,2.62,2.62,0,0,0-.14.86,3,3,0,0,1-.15.59,2.93,2.93,0,0,1-.23.43,2.45,2.45,0,0,1-.82.78,2.46,2.46,0,0,1-3.67-1.71c0-.25,0-.52-.08-.76a1.43,1.43,0,0,0-.36-.62,1.36,1.36,0,0,0-2,1.87,1.31,1.31,0,0,0,.59.38,3.07,3.07,0,0,0,.74.1,2.46,2.46,0,0,1,1.42.7,2.52,2.52,0,0,1,.71,1.46,3.58,3.58,0,0,0,0,.58"/>
      <path class="cls-21" d="M93.86,89.06a1.42,1.42,0,0,0-.41-.71,1.37,1.37,0,0,0-1.88.05,1.28,1.28,0,0,0-.36.64c-.06.24,0,.53-.11.85a2.39,2.39,0,0,1-.67,1.21,2.46,2.46,0,0,1-1.31.69,6.14,6.14,0,0,0-.86.12,1.19,1.19,0,0,0-.54.34,1.36,1.36,0,0,0,1.89,2,1.25,1.25,0,0,0,.33-.48,2.54,2.54,0,0,0,.15-.85,2.44,2.44,0,0,1,.15-.59,1.61,1.61,0,0,1,.23-.43,2.45,2.45,0,0,1,.82-.78,2.38,2.38,0,0,1,1.24-.34,2.47,2.47,0,0,1,2.43,2c0,.25,0,.52.08.76a1.34,1.34,0,0,0,.36.62,1.36,1.36,0,0,0,2-1.87,1.39,1.39,0,0,0-.59-.39,3.76,3.76,0,0,0-.74-.1,2.4,2.4,0,0,1-1.42-.7,2.44,2.44,0,0,1-.71-1.45,5.63,5.63,0,0,0,0-.59"/>
      <path class="cls-21" d="M101.16,90.29a1.33,1.33,0,0,1-1.9,0,1.34,1.34,0,0,1,1.9-1.9,1.33,1.33,0,0,1,0,1.9"/>
      <path class="cls-21" d="M101.16,101.83a1.33,1.33,0,0,1-1.9,0,1.34,1.34,0,0,1,1.9-1.9,1.33,1.33,0,0,1,0,1.9"/>
      <path class="cls-21" d="M89.63,90.29a1.35,1.35,0,0,1-1.91-1.9,1.35,1.35,0,1,1,1.91,1.9"/>
      <path class="cls-21" d="M89.63,101.83a1.35,1.35,0,0,1-1.91-1.9,1.35,1.35,0,1,1,1.91,1.9"/>
      <path class="cls-21" d="M106.72,100.45l-.23-.06a.59.59,0,0,0-.2,0,.41.41,0,0,0-.38.2.94.94,0,0,0-.13.54,1.08,1.08,0,0,0,.11.52.39.39,0,0,0,.37.22,1,1,0,0,0,.25,0l.2-.07.15.29a1,1,0,0,1-.28.1,1.77,1.77,0,0,1-.3,0,.79.79,0,0,1-.69-.31,1.25,1.25,0,0,1-.22-.75,1.21,1.21,0,0,1,.24-.78.83.83,0,0,1,.69-.3l.25,0a.91.91,0,0,1,.29.1Z"/>
      <rect class="cls-21" x="107.72" y="100.08" width="0.39" height="2.05"/>
      <path class="cls-21" d="M110.54,102.13h-1.43v-2h1.22l.06.31h-.89v.55H110l.07.31h-.61v.58h1Zm-1-2.23h-.37l.46-.5h.22l.46.5h-.36l-.2-.2Z"/>
      <polygon class="cls-21" points="113.08 100.08 113.08 102.13 112.68 102.13 111.73 100.76 111.73 102.13 111.34 102.13 111.34 100.08 111.73 100.08 112.68 101.45 112.68 100.08 113.08 100.08"/>
      <path class="cls-21" d="M115.34,100.45l-.23-.06a.68.68,0,0,0-.21,0,.4.4,0,0,0-.37.2.94.94,0,0,0-.14.54,1.21,1.21,0,0,0,.11.52.41.41,0,0,0,.38.22.88.88,0,0,0,.24,0,1,1,0,0,0,.21-.07l.15.29a1.1,1.1,0,0,1-.29.1,1.67,1.67,0,0,1-.29,0,.82.82,0,0,1-.7-.31,1.32,1.32,0,0,1-.21-.75,1.21,1.21,0,0,1,.24-.78.83.83,0,0,1,.69-.3l.25,0a1,1,0,0,1,.29.1Z"/>
      <rect class="cls-21" x="116.34" y="100.08" width="0.39" height="2.05"/>
      <path class="cls-21" d="M118.62,100.08l.8,2-.4,0-.18-.48h-.78l-.18.48h-.39l.8-2Zm-.18.54-.27.71h.55Z"/>
      <path class="cls-21" d="M120.21,101.69a.23.23,0,0,1,.16.08.29.29,0,0,1,.07.19.67.67,0,0,1-.12.36.83.83,0,0,1-.28.28l-.09-.19.13-.12a.26.26,0,0,0,.07-.16.14.14,0,0,1-.1-.06.24.24,0,0,1-.06-.15.25.25,0,0,1,.06-.16.24.24,0,0,1,.16-.07"/>
      <polygon class="cls-21" points="122.18 100.08 123.84 100.08 123.91 100.39 123.2 100.39 123.2 102.13 122.81 102.13 122.81 100.39 122.18 100.39 122.18 100.08"/>
      <polygon class="cls-21" points="126.1 102.13 124.66 102.13 124.66 100.08 125.88 100.08 125.94 100.39 125.05 100.39 125.05 100.94 125.6 100.94 125.66 101.25 125.05 101.25 125.05 101.83 126.03 101.83 126.1 102.13"/>
      <path class="cls-21" d="M128.17,100.45l-.23-.06a.68.68,0,0,0-.21,0,.42.42,0,0,0-.38.2,1,1,0,0,0-.13.54,1.21,1.21,0,0,0,.11.52.41.41,0,0,0,.38.22,1,1,0,0,0,.24,0,1,1,0,0,0,.21-.07l.15.29a1.1,1.1,0,0,1-.29.1,1.81,1.81,0,0,1-.29,0,.82.82,0,0,1-.7-.31,1.33,1.33,0,0,1-.22-.75,1.21,1.21,0,0,1,.24-.78.83.83,0,0,1,.69-.3l.25,0a1,1,0,0,1,.3.1Z"/>
      <polygon class="cls-21" points="130.9 100.08 130.9 102.13 130.51 102.13 129.56 100.76 129.56 102.13 129.17 102.13 129.17 100.08 129.56 100.08 130.51 101.45 130.51 100.08 130.9 100.08"/>
      <path class="cls-21" d="M131.81,101.11a1.21,1.21,0,0,1,.25-.77.9.9,0,0,1,.7-.31.81.81,0,0,1,.71.31,1.2,1.2,0,0,1,.24.75,1.21,1.21,0,0,1-.25.78.87.87,0,0,1-.7.31.84.84,0,0,1-.71-.31,1.21,1.21,0,0,1-.24-.76m.41,0a1,1,0,0,0,.13.53.45.45,0,0,0,.41.21.49.49,0,0,0,.39-.19.88.88,0,0,0,.15-.57.91.91,0,0,0-.13-.52.45.45,0,0,0-.41-.21.47.47,0,0,0-.39.2.92.92,0,0,0-.15.55"/>
      <polygon class="cls-21" points="135.97 102.13 134.62 102.13 134.62 100.08 135.01 100.08 135.01 101.83 135.91 101.83 135.97 102.13"/>
      <path class="cls-21" d="M136.66,101.11a1.15,1.15,0,0,1,.25-.77.87.87,0,0,1,.69-.31.82.82,0,0,1,.72.31,1.19,1.19,0,0,1,.23.75,1.16,1.16,0,0,1-.25.78,1,1,0,0,1-1.41,0,1.27,1.27,0,0,1-.23-.76m.41,0a1,1,0,0,0,.13.53.43.43,0,0,0,.4.21.5.5,0,0,0,.4-.19.88.88,0,0,0,.15-.57,1,1,0,0,0-.13-.52.46.46,0,0,0-.41-.21.47.47,0,0,0-.39.2.92.92,0,0,0-.15.55"/>
      <path class="cls-21" d="M140.23,101H141v1a1,1,0,0,1-.28.11,1.36,1.36,0,0,1-.36.05.87.87,0,0,1-.72-.31,1.2,1.2,0,0,1-.24-.75,1.14,1.14,0,0,1,.27-.78,1,1,0,0,1,.74-.3l.26,0a1,1,0,0,1,.3.1l-.12.28-.22-.06a.62.62,0,0,0-.21,0,.56.56,0,0,0-.44.18.83.83,0,0,0-.17.56.87.87,0,0,0,.14.54.45.45,0,0,0,.4.2h.17l.13,0v-.5h-.43Z"/>
      <rect class="cls-21" x="141.93" y="100.08" width="0.39" height="2.05"/>
      <path class="cls-21" d="M144.21,100.08l.79,2-.39,0-.18-.48h-.78l-.18.48h-.4l.8-2Zm-.18.54-.27.71h.55Z"/>
      <polygon class="cls-21" points="148.39 102.13 146.96 102.13 146.96 100.08 148.18 100.08 148.24 100.39 147.34 100.39 147.34 100.94 147.89 100.94 147.96 101.25 147.34 101.25 147.34 101.83 148.33 101.83 148.39 102.13"/>
      <rect class="cls-21" x="150.39" y="100.08" width="0.39" height="2.05"/>
      <polygon class="cls-21" points="153.5 100.08 153.5 102.13 153.11 102.13 152.16 100.76 152.16 102.13 151.77 102.13 151.77 100.08 152.16 100.08 153.11 101.45 153.11 100.08 153.5 100.08"/>
      <path class="cls-21" d="M154.41,101.11a1.15,1.15,0,0,1,.25-.77.89.89,0,0,1,.7-.31.81.81,0,0,1,.71.31,1.2,1.2,0,0,1,.24.75,1.21,1.21,0,0,1-.25.78,1,1,0,0,1-1.42,0,1.27,1.27,0,0,1-.23-.76m.41,0a1,1,0,0,0,.13.53.44.44,0,0,0,.4.21.5.5,0,0,0,.4-.19.88.88,0,0,0,.15-.57,1,1,0,0,0-.13-.52.45.45,0,0,0-.41-.21.47.47,0,0,0-.39.2.92.92,0,0,0-.15.55"/>
      <polygon class="cls-21" points="157.78 102.13 156.98 100.13 157.37 100.08 157.95 101.6 158.51 100.08 158.91 100.08 158.11 102.13 157.78 102.13"/>
      <path class="cls-21" d="M160.56,100.08l.8,2-.39,0-.19-.48H160l-.18.48h-.39l.8-2Zm-.17.54-.27.71h.54Z"/>
      <path class="cls-21" d="M163.39,100.45l-.23-.06a.68.68,0,0,0-.21,0,.42.42,0,0,0-.38.2,1,1,0,0,0-.13.54,1.21,1.21,0,0,0,.11.52.41.41,0,0,0,.38.22.93.93,0,0,0,.24,0,1,1,0,0,0,.21-.07l.15.29-.22.08-.24,0,0,0a.42.42,0,0,1,.15.11.29.29,0,0,1,.06.16.26.26,0,0,1-.12.24.44.44,0,0,1-.26.07l-.15,0-.14-.06.09-.23.1,0,.1,0H163s0,0,0,0,0-.06-.07-.09a.48.48,0,0,0-.19,0l.07-.2a.71.71,0,0,1-.57-.34,1.25,1.25,0,0,1-.19-.7,1.21,1.21,0,0,1,.24-.78.83.83,0,0,1,.69-.3l.26,0a1,1,0,0,1,.29.1Z"/>
      <path class="cls-21" d="M165.29,100.08l.8,2-.4,0-.18-.48h-.78l-.18.48h-.4l.81-2Zm-.43-.21h-.26a.39.39,0,0,1,.1-.29.38.38,0,0,1,.23-.08.28.28,0,0,1,.18.06.3.3,0,0,0,.15,0,.07.07,0,0,0,.06,0,.09.09,0,0,0,0-.06h.24a.33.33,0,0,1-.1.28.32.32,0,0,1-.22.08.3.3,0,0,1-.18,0,.2.2,0,0,0-.14-.06.05.05,0,0,0-.06,0,.09.09,0,0,0,0,.06m.25.75-.27.71h.55Z"/>
      <path class="cls-21" d="M166.76,101.11a1.15,1.15,0,0,1,.25-.77.87.87,0,0,1,.7-.31.81.81,0,0,1,.71.31,1.19,1.19,0,0,1,.23.75,1.16,1.16,0,0,1-.25.78.84.84,0,0,1-.69.31.86.86,0,0,1-.72-.31,1.27,1.27,0,0,1-.23-.76m.41,0a1,1,0,0,0,.13.53.43.43,0,0,0,.4.21.5.5,0,0,0,.4-.19.88.88,0,0,0,.15-.57,1,1,0,0,0-.13-.52.46.46,0,0,0-.41-.21.47.47,0,0,0-.39.2.92.92,0,0,0-.15.55"/>
      <path class="cls-21" d="M112.09,89.62l-1-.31a4.67,4.67,0,0,0-1.1-.11,2.33,2.33,0,0,0-2,1,4.77,4.77,0,0,0-.72,2.78,5.54,5.54,0,0,0,.6,2.65,2.07,2.07,0,0,0,2,1.12,5.07,5.07,0,0,0,1.22-.13,7,7,0,0,0,1-.32l.62,1.23a4.84,4.84,0,0,1-1.32.45,7.07,7.07,0,0,1-1.41.17,3.77,3.77,0,0,1-3.36-1.51,6.21,6.21,0,0,1-1-3.65,6,6,0,0,1,1.15-3.75A3.94,3.94,0,0,1,110,87.8a6.91,6.91,0,0,1,1.24.15,4.45,4.45,0,0,1,1.36.47Z"/>
      <rect class="cls-21" x="114.67" y="88.01" width="1.64" height="9.99"/>
      <polygon class="cls-21" points="125.83 89.31 122.49 89.31 122.49 97.99 120.81 97.99 120.81 89.31 117.74 89.31 117.74 88.01 125.58 88.01 125.83 89.31"/>
      <rect class="cls-21" x="126.67" y="88.01" width="2.67" height="9.99"/>
      <polygon class="cls-21" points="130.81 97.99 130.81 88.01 133.29 88.01 137.14 93.42 137.14 88.01 139.81 88.01 139.81 97.99 137.32 97.99 133.48 92.73 133.48 97.99 130.81 97.99"/>
      <path class="cls-21" d="M140.84,93a5.48,5.48,0,0,1,1.31-3.77,4.5,4.5,0,0,1,3.55-1.47,4.43,4.43,0,0,1,3.66,1.5,5.6,5.6,0,0,1,1.22,3.64,5.53,5.53,0,0,1-1.29,3.79,4.54,4.54,0,0,1-3.59,1.47,4.42,4.42,0,0,1-3.63-1.51A5.58,5.58,0,0,1,140.84,93m2.75,0a4.18,4.18,0,0,0,.48,2.1,1.72,1.72,0,0,0,1.62.84,1.86,1.86,0,0,0,1.58-.76,3.74,3.74,0,0,0,.56-2.27,4,4,0,0,0-.49-2.08,1.73,1.73,0,0,0-1.61-.83,1.82,1.82,0,0,0-1.57.83,3.72,3.72,0,0,0-.57,2.17"/>
      <polygon class="cls-21" points="154.16 97.99 150.43 88.27 153.06 88.01 155.53 94.81 157.92 88.01 160.58 88.01 156.83 97.99 154.16 97.99"/>
      <path class="cls-21" d="M164.94,88l3.73,9.72L166,98l-.72-2h-3.45l-.69,2h-2.66l3.75-10Zm-1.38,3.2-1,2.71h2Z"/>
    </g>
  </g>
</svg>
