<svg id="Camada_1" data-name="Camada 1" xmlns="http://www.w3.org/2000/svg" xmlns:xlink="http://www.w3.org/1999/xlink" viewBox="0 0 256 113.49">
  <defs>
    <style>
      .cls-1 {
        fill: none;
      }

      .cls-2 {
        clip-path: url(#clip-path);
      }

      .cls-3 {
        clip-path: url(#clip-path-3);
      }

      .cls-4 {
        fill: #ea8024;
      }

      .cls-12, .cls-5 {
        font-size: 15.32px;
        font-family: Montserrat-Black, Montserrat;
        font-weight: 800;
      }

      .cls-12, .cls-15, .cls-5 {
        fill: #221f20;
      }

      .cls-6 {
        letter-spacing: -0.02em;
      }

      .cls-7 {
        letter-spacing: -0.02em;
      }

      .cls-8 {
        letter-spacing: -0.02em;
      }

      .cls-12, .cls-9 {
        letter-spacing: -0.02em;
      }

      .cls-10 {
        letter-spacing: -0.02em;
      }

      .cls-11 {
        letter-spacing: -0.02em;
      }

      .cls-13 {
        letter-spacing: 0em;
      }

      .cls-14 {
        letter-spacing: -0.02em;
      }
    </style>
    <clipPath id="clip-path">
      <rect class="cls-1" x="-27.74" y="-1028.21" width="256" height="512"/>
    </clipPath>
    <clipPath id="clip-path-3">
      <rect class="cls-1" y="-306.05" width="256" height="512"/>
    </clipPath>
  </defs>
  <g class="cls-3">
    <rect class="cls-4" y="-306.05" width="256" height="512"/>
    <text class="cls-5" transform="translate(21.03 29.88)"><tspan class="cls-6">A </tspan><tspan class="cls-7" x="16.37" y="0">Pr</tspan><tspan class="cls-6" x="34.13" y="0">efeit</tspan><tspan class="cls-8" x="71.26" y="0">u</tspan><tspan class="cls-9" x="81.65" y="0">ra se</tspan><tspan class="cls-7" x="120.23" y="0">gu</tspan><tspan class="cls-6" x="141.21" y="0">e </tspan><tspan class="cls-7" x="155.23" y="0">u</tspan><tspan class="cls-10" x="165.62" y="0">sa</tspan><tspan class="cls-11" x="183.49" y="0">n</tspan><tspan class="cls-6" x="193.94" y="0">d</tspan><tspan class="cls-7" x="204.45" y="0">o</tspan><tspan x="214.53" y="0"> </tspan></text>
    <text class="cls-12" transform="translate(21.03 47.79)">a tecn<tspan class="cls-7" x="49.88" y="0">o</tspan><tspan class="cls-6" x="59.96" y="0">l</tspan><tspan class="cls-7" x="64.67" y="0">og</tspan><tspan x="85.34" y="0">ia a fa</tspan><tspan class="cls-7" x="133.39" y="0">vo</tspan><tspan class="cls-13" x="153.04" y="0">r</tspan></text>
    <text class="cls-5" transform="translate(21.03 65.7)"><tspan class="cls-6">das </tspan><tspan class="cls-8" x="32.69" y="0">po</tspan><tspan class="cls-9" x="53.19" y="0">líticas p</tspan><tspan class="cls-14" x="115.8" y="0">úb</tspan><tspan class="cls-6" x="136.61" y="0">licas</tspan><tspan x="173.02" y="0">.</tspan></text>
    <g class="cls-3">
      <path class="cls-15" d="M88.39,95.7a1.35,1.35,0,0,0-.7.41,1.36,1.36,0,0,0,.68,2.24c.25.06.54,0,.85.11a2.39,2.39,0,0,1,1.21.67,2.42,2.42,0,0,1,.69,1.31,6.35,6.35,0,0,0,.12.86,1.34,1.34,0,0,0,.34.54,1.36,1.36,0,0,0,2-1.89,1.27,1.27,0,0,0-.48-.34,2.53,2.53,0,0,0-.85-.14,3,3,0,0,1-.59-.15,2.5,2.5,0,0,1-.43-.23,2.45,2.45,0,0,1-.78-.82,2.46,2.46,0,0,1,1.71-3.67c.25,0,.52,0,.76-.08a1.43,1.43,0,0,0,.62-.36,1.36,1.36,0,0,0-1.87-2,1.33,1.33,0,0,0-.39.59,3.06,3.06,0,0,0-.09.74A2.5,2.5,0,0,1,89,95.65a3.81,3.81,0,0,0-.59,0"/>
      <path class="cls-15" d="M100.49,94.53a1.41,1.41,0,0,0,.71-.41,1.36,1.36,0,0,0-.68-2.24c-.25-.06-.54,0-.85-.11a2.47,2.47,0,0,1-1.9-2,6.14,6.14,0,0,0-.12-.86,1.38,1.38,0,0,0-.34-.54,1.36,1.36,0,0,0-2,1.89,1.29,1.29,0,0,0,.47.33,2.64,2.64,0,0,0,.86.15,2.44,2.44,0,0,1,.59.15,1.78,1.78,0,0,1,.43.23,2.36,2.36,0,0,1,.78.82,2.47,2.47,0,0,1,.33,1.24,2.43,2.43,0,0,1-.71,1.73,2.46,2.46,0,0,1-1.33.7c-.25,0-.52,0-.76.08a1.34,1.34,0,0,0-.62.36,1.36,1.36,0,1,0,2.25,1.38,3.14,3.14,0,0,0,.1-.74,2.47,2.47,0,0,1,2.16-2.13,5.22,5.22,0,0,0,.58,0"/>
      <path class="cls-15" d="M95,101.16a1.34,1.34,0,0,0,.41.71,1.37,1.37,0,0,0,1.88,0,1.46,1.46,0,0,0,.36-.64c.06-.25,0-.54.11-.85a2.47,2.47,0,0,1,2-1.9,6.35,6.35,0,0,0,.86-.12,1.46,1.46,0,0,0,.54-.34,1.36,1.36,0,0,0-1.89-2,1.32,1.32,0,0,0-.34.47,2.62,2.62,0,0,0-.14.86,3,3,0,0,1-.15.59,2.93,2.93,0,0,1-.23.43,2.45,2.45,0,0,1-.82.78,2.46,2.46,0,0,1-3.67-1.71c0-.25,0-.52-.08-.76a1.43,1.43,0,0,0-.36-.62,1.36,1.36,0,0,0-2,1.87,1.31,1.31,0,0,0,.59.38,3.07,3.07,0,0,0,.74.1,2.46,2.46,0,0,1,1.42.7,2.52,2.52,0,0,1,.71,1.46,3.58,3.58,0,0,0,0,.58"/>
      <path class="cls-15" d="M93.86,89.06a1.42,1.42,0,0,0-.41-.71,1.37,1.37,0,0,0-1.88.05,1.28,1.28,0,0,0-.36.64c-.06.24,0,.53-.11.85a2.39,2.39,0,0,1-.67,1.21,2.46,2.46,0,0,1-1.31.69,6.14,6.14,0,0,0-.86.12,1.19,1.19,0,0,0-.54.34,1.36,1.36,0,0,0,1.89,2,1.25,1.25,0,0,0,.33-.48,2.54,2.54,0,0,0,.15-.85,2.44,2.44,0,0,1,.15-.59,1.61,1.61,0,0,1,.23-.43,2.45,2.45,0,0,1,.82-.78,2.38,2.38,0,0,1,1.24-.34,2.47,2.47,0,0,1,2.43,2c0,.25,0,.52.08.76a1.34,1.34,0,0,0,.36.62,1.36,1.36,0,0,0,2-1.87,1.39,1.39,0,0,0-.59-.39,3.76,3.76,0,0,0-.74-.1,2.4,2.4,0,0,1-1.42-.7,2.44,2.44,0,0,1-.71-1.45,5.63,5.63,0,0,0,0-.59"/>
      <path class="cls-15" d="M101.16,90.29a1.33,1.33,0,0,1-1.9,0,1.34,1.34,0,0,1,1.9-1.9,1.33,1.33,0,0,1,0,1.9"/>
      <path class="cls-15" d="M101.16,101.83a1.33,1.33,0,0,1-1.9,0,1.34,1.34,0,0,1,1.9-1.9,1.33,1.33,0,0,1,0,1.9"/>
      <path class="cls-15" d="M89.63,90.29a1.35,1.35,0,0,1-1.91-1.9,1.35,1.35,0,1,1,1.91,1.9"/>
      <path class="cls-15" d="M89.63,101.83a1.35,1.35,0,0,1-1.91-1.9,1.35,1.35,0,1,1,1.91,1.9"/>
      <path class="cls-15" d="M106.72,100.45l-.23-.06a.59.59,0,0,0-.2,0,.41.41,0,0,0-.38.2.94.94,0,0,0-.13.54,1.08,1.08,0,0,0,.11.52.39.39,0,0,0,.37.22,1,1,0,0,0,.25,0l.2-.07.15.29a1,1,0,0,1-.28.1,1.77,1.77,0,0,1-.3,0,.79.79,0,0,1-.69-.31,1.25,1.25,0,0,1-.22-.75,1.21,1.21,0,0,1,.24-.78.83.83,0,0,1,.69-.3l.25,0a.91.91,0,0,1,.29.1Z"/>
      <rect class="cls-15" x="107.72" y="100.08" width="0.39" height="2.05"/>
      <path class="cls-15" d="M110.54,102.13h-1.43v-2h1.22l.06.31h-.89v.55H110l.07.31h-.61v.58h1Zm-1-2.23h-.37l.46-.5h.22l.46.5h-.36l-.2-.2Z"/>
      <polygon class="cls-15" points="113.08 100.08 113.08 102.13 112.68 102.13 111.73 100.76 111.73 102.13 111.34 102.13 111.34 100.08 111.73 100.08 112.68 101.45 112.68 100.08 113.08 100.08"/>
      <path class="cls-15" d="M115.34,100.45l-.23-.06a.68.68,0,0,0-.21,0,.4.4,0,0,0-.37.2.94.94,0,0,0-.14.54,1.21,1.21,0,0,0,.11.52.41.41,0,0,0,.38.22.88.88,0,0,0,.24,0,1,1,0,0,0,.21-.07l.15.29a1.1,1.1,0,0,1-.29.1,1.67,1.67,0,0,1-.29,0,.82.82,0,0,1-.7-.31,1.32,1.32,0,0,1-.21-.75,1.21,1.21,0,0,1,.24-.78.83.83,0,0,1,.69-.3l.25,0a1,1,0,0,1,.29.1Z"/>
      <rect class="cls-15" x="116.34" y="100.08" width="0.39" height="2.05"/>
      <path class="cls-15" d="M118.62,100.08l.8,2-.4,0-.18-.48h-.78l-.18.48h-.39l.8-2Zm-.18.54-.27.71h.55Z"/>
      <path class="cls-15" d="M120.21,101.69a.23.23,0,0,1,.16.08.29.29,0,0,1,.07.19.67.67,0,0,1-.12.36.83.83,0,0,1-.28.28l-.09-.19.13-.12a.26.26,0,0,0,.07-.16.14.14,0,0,1-.1-.06.24.24,0,0,1-.06-.15.25.25,0,0,1,.06-.16.24.24,0,0,1,.16-.07"/>
      <polygon class="cls-15" points="122.18 100.08 123.84 100.08 123.91 100.39 123.2 100.39 123.2 102.13 122.81 102.13 122.81 100.39 122.18 100.39 122.18 100.08"/>
      <polygon class="cls-15" points="126.1 102.13 124.66 102.13 124.66 100.08 125.88 100.08 125.94 100.39 125.05 100.39 125.05 100.94 125.6 100.94 125.66 101.25 125.05 101.25 125.05 101.83 126.03 101.83 126.1 102.13"/>
      <path class="cls-15" d="M128.17,100.45l-.23-.06a.68.68,0,0,0-.21,0,.42.42,0,0,0-.38.2,1,1,0,0,0-.13.54,1.21,1.21,0,0,0,.11.52.41.41,0,0,0,.38.22,1,1,0,0,0,.24,0,1,1,0,0,0,.21-.07l.15.29a1.1,1.1,0,0,1-.29.1,1.81,1.81,0,0,1-.29,0,.82.82,0,0,1-.7-.31,1.33,1.33,0,0,1-.22-.75,1.21,1.21,0,0,1,.24-.78.83.83,0,0,1,.69-.3l.25,0a1,1,0,0,1,.3.1Z"/>
      <polygon class="cls-15" points="130.9 100.08 130.9 102.13 130.51 102.13 129.56 100.76 129.56 102.13 129.17 102.13 129.17 100.08 129.56 100.08 130.51 101.45 130.51 100.08 130.9 100.08"/>
      <path class="cls-15" d="M131.81,101.11a1.21,1.21,0,0,1,.25-.77.9.9,0,0,1,.7-.31.81.81,0,0,1,.71.31,1.2,1.2,0,0,1,.24.75,1.21,1.21,0,0,1-.25.78.87.87,0,0,1-.7.31.84.84,0,0,1-.71-.31,1.21,1.21,0,0,1-.24-.76m.41,0a1,1,0,0,0,.13.53.45.45,0,0,0,.41.21.49.49,0,0,0,.39-.19.88.88,0,0,0,.15-.57.91.91,0,0,0-.13-.52.45.45,0,0,0-.41-.21.47.47,0,0,0-.39.2.92.92,0,0,0-.15.55"/>
      <polygon class="cls-15" points="135.97 102.13 134.62 102.13 134.62 100.08 135.01 100.08 135.01 101.83 135.91 101.83 135.97 102.13"/>
      <path class="cls-15" d="M136.66,101.11a1.15,1.15,0,0,1,.25-.77.87.87,0,0,1,.69-.31.82.82,0,0,1,.72.31,1.19,1.19,0,0,1,.23.75,1.16,1.16,0,0,1-.25.78,1,1,0,0,1-1.41,0,1.27,1.27,0,0,1-.23-.76m.41,0a1,1,0,0,0,.13.53.43.43,0,0,0,.4.21.5.5,0,0,0,.4-.19.88.88,0,0,0,.15-.57,1,1,0,0,0-.13-.52.46.46,0,0,0-.41-.21.47.47,0,0,0-.39.2.92.92,0,0,0-.15.55"/>
      <path class="cls-15" d="M140.23,101H141v1a1,1,0,0,1-.28.11,1.36,1.36,0,0,1-.36.05.87.87,0,0,1-.72-.31,1.2,1.2,0,0,1-.24-.75,1.14,1.14,0,0,1,.27-.78,1,1,0,0,1,.74-.3l.26,0a1,1,0,0,1,.3.1l-.12.28-.22-.06a.62.62,0,0,0-.21,0,.56.56,0,0,0-.44.18.83.83,0,0,0-.17.56.87.87,0,0,0,.14.54.45.45,0,0,0,.4.2h.17l.13,0v-.5h-.43Z"/>
      <rect class="cls-15" x="141.93" y="100.08" width="0.39" height="2.05"/>
      <path class="cls-15" d="M144.21,100.08l.79,2-.39,0-.18-.48h-.78l-.18.48h-.4l.8-2Zm-.18.54-.27.71h.55Z"/>
      <polygon class="cls-15" points="148.39 102.13 146.96 102.13 146.96 100.08 148.18 100.08 148.24 100.39 147.34 100.39 147.34 100.94 147.89 100.94 147.96 101.25 147.34 101.25 147.34 101.83 148.33 101.83 148.39 102.13"/>
      <rect class="cls-15" x="150.39" y="100.08" width="0.39" height="2.05"/>
      <polygon class="cls-15" points="153.5 100.08 153.5 102.13 153.11 102.13 152.16 100.76 152.16 102.13 151.77 102.13 151.77 100.08 152.16 100.08 153.11 101.45 153.11 100.08 153.5 100.08"/>
      <path class="cls-15" d="M154.41,101.11a1.15,1.15,0,0,1,.25-.77.89.89,0,0,1,.7-.31.81.81,0,0,1,.71.31,1.2,1.2,0,0,1,.24.75,1.21,1.21,0,0,1-.25.78,1,1,0,0,1-1.42,0,1.27,1.27,0,0,1-.23-.76m.41,0a1,1,0,0,0,.13.53.44.44,0,0,0,.4.21.5.5,0,0,0,.4-.19.88.88,0,0,0,.15-.57,1,1,0,0,0-.13-.52.45.45,0,0,0-.41-.21.47.47,0,0,0-.39.2.92.92,0,0,0-.15.55"/>
      <polygon class="cls-15" points="157.78 102.13 156.98 100.13 157.37 100.08 157.95 101.6 158.51 100.08 158.91 100.08 158.11 102.13 157.78 102.13"/>
      <path class="cls-15" d="M160.56,100.08l.8,2-.39,0-.19-.48H160l-.18.48h-.39l.8-2Zm-.17.54-.27.71h.54Z"/>
      <path class="cls-15" d="M163.39,100.45l-.23-.06a.68.68,0,0,0-.21,0,.42.42,0,0,0-.38.2,1,1,0,0,0-.13.54,1.21,1.21,0,0,0,.11.52.41.41,0,0,0,.38.22.93.93,0,0,0,.24,0,1,1,0,0,0,.21-.07l.15.29-.22.08-.24,0,0,0a.42.42,0,0,1,.15.11.29.29,0,0,1,.06.16.26.26,0,0,1-.12.24.44.44,0,0,1-.26.07l-.15,0-.14-.06.09-.23.1,0,.1,0H163s0,0,0,0,0-.06-.07-.09a.48.48,0,0,0-.19,0l.07-.2a.71.71,0,0,1-.57-.34,1.25,1.25,0,0,1-.19-.7,1.21,1.21,0,0,1,.24-.78.83.83,0,0,1,.69-.3l.26,0a1,1,0,0,1,.29.1Z"/>
      <path class="cls-15" d="M165.29,100.08l.8,2-.4,0-.18-.48h-.78l-.18.48h-.4l.81-2Zm-.43-.21h-.26a.39.39,0,0,1,.1-.29.38.38,0,0,1,.23-.08.28.28,0,0,1,.18.06.3.3,0,0,0,.15,0,.07.07,0,0,0,.06,0,.09.09,0,0,0,0-.06h.24a.33.33,0,0,1-.1.28.32.32,0,0,1-.22.08.3.3,0,0,1-.18,0,.2.2,0,0,0-.14-.06.05.05,0,0,0-.06,0,.09.09,0,0,0,0,.06m.25.75-.27.71h.55Z"/>
      <path class="cls-15" d="M166.76,101.11a1.15,1.15,0,0,1,.25-.77.87.87,0,0,1,.7-.31.81.81,0,0,1,.71.31,1.19,1.19,0,0,1,.23.75,1.16,1.16,0,0,1-.25.78.84.84,0,0,1-.69.31.86.86,0,0,1-.72-.31,1.27,1.27,0,0,1-.23-.76m.41,0a1,1,0,0,0,.13.53.43.43,0,0,0,.4.21.5.5,0,0,0,.4-.19.88.88,0,0,0,.15-.57,1,1,0,0,0-.13-.52.46.46,0,0,0-.41-.21.47.47,0,0,0-.39.2.92.92,0,0,0-.15.55"/>
      <path class="cls-15" d="M112.09,89.62l-1-.31a4.67,4.67,0,0,0-1.1-.11,2.33,2.33,0,0,0-2,1,4.77,4.77,0,0,0-.72,2.78,5.54,5.54,0,0,0,.6,2.65,2.07,2.07,0,0,0,2,1.12,5.07,5.07,0,0,0,1.22-.13,7,7,0,0,0,1-.32l.62,1.23a4.84,4.84,0,0,1-1.32.45,7.07,7.07,0,0,1-1.41.17,3.77,3.77,0,0,1-3.36-1.51,6.21,6.21,0,0,1-1-3.65,6,6,0,0,1,1.15-3.75A3.94,3.94,0,0,1,110,87.8a6.91,6.91,0,0,1,1.24.15,4.45,4.45,0,0,1,1.36.47Z"/>
      <rect class="cls-15" x="114.67" y="88.01" width="1.64" height="9.99"/>
      <polygon class="cls-15" points="125.83 89.31 122.49 89.31 122.49 97.99 120.81 97.99 120.81 89.31 117.74 89.31 117.74 88.01 125.58 88.01 125.83 89.31"/>
      <rect class="cls-15" x="126.67" y="88.01" width="2.67" height="9.99"/>
      <polygon class="cls-15" points="130.81 97.99 130.81 88.01 133.29 88.01 137.14 93.42 137.14 88.01 139.81 88.01 139.81 97.99 137.32 97.99 133.48 92.73 133.48 97.99 130.81 97.99"/>
      <path class="cls-15" d="M140.84,93a5.48,5.48,0,0,1,1.31-3.77,4.5,4.5,0,0,1,3.55-1.47,4.43,4.43,0,0,1,3.66,1.5,5.6,5.6,0,0,1,1.22,3.64,5.53,5.53,0,0,1-1.29,3.79,4.54,4.54,0,0,1-3.59,1.47,4.42,4.42,0,0,1-3.63-1.51A5.58,5.58,0,0,1,140.84,93m2.75,0a4.18,4.18,0,0,0,.48,2.1,1.72,1.72,0,0,0,1.62.84,1.86,1.86,0,0,0,1.58-.76,3.74,3.74,0,0,0,.56-2.27,4,4,0,0,0-.49-2.08,1.73,1.73,0,0,0-1.61-.83,1.82,1.82,0,0,0-1.57.83,3.72,3.72,0,0,0-.57,2.17"/>
      <polygon class="cls-15" points="154.16 97.99 150.43 88.27 153.06 88.01 155.53 94.81 157.92 88.01 160.58 88.01 156.83 97.99 154.16 97.99"/>
      <path class="cls-15" d="M164.94,88l3.73,9.72L166,98l-.72-2h-3.45l-.69,2h-2.66l3.75-10Zm-1.38,3.2-1,2.71h2Z"/>
    </g>
  </g>
</svg>
